*
*
G04 PowerPCB (Build Number [400.168]) generated Gerber (RS-274-X) file*
G04 PC Version=2.1*
*
%IN "Embase_XP1805-V2.pcb"*%
*
%MOIN*%
*
%FSLAX35Y35*%
*
*
*
*
G04 PC Standard Apertures*
*
*
G04 Thermal Relief Aperture macro.*
%AMTER*
1,1,$1,0,0*
1,0,$1-$2,0,0*
21,0,$3,$4,0,0,45*
21,0,$3,$4,0,0,135*
%
*
*
G04 Annular Aperture macro.*
%AMANN*
1,1,$1,0,0*
1,0,$2,0,0*
%
*
*
G04 Odd Aperture macro.*
%AMODD*
1,1,$1,0,0*
1,0,$1-0.005,0,0*
%
*
*
G04 PC Custom Aperture Macros*
*
*
*
*
*
*
G04 PC Aperture Table*
*
%ADD010C,0.01*%
%ADD011C,0.025*%
%ADD012C,0.00787*%
%ADD016C,0.09449*%
%ADD017C,0.07087*%
%ADD026C,0.07874*%
%ADD027C,0.01181*%
%ADD033C,0.01969*%
%ADD034C,0.05906*%
%ADD035C,0.03937*%
%ADD036C,0.04724*%
%ADD058C,0.1*%
%ADD079R,0.09843X0.09843*%
%ADD080C,0.05512*%
%ADD090C,0.08268*%
*
*
*
*
G04 PC Custom Flashes*
G04 Layer Name Embase_XP1805-V2.pcb - flashes*
%LPD*%
*
*
G04 PC Circuitry*
G04 Layer Name Embase_XP1805-V2.pcb - circuitry*
%LPD*%
*
G54D10*
G01X974975Y1319824D02*
X224975D01*
X224975D02*
Y249824D01*
X224975D02*
X974975D01*
X974975D02*
Y1319824D01*
X787475Y249824D02*
Y224824D01*
X599975Y249824D02*
Y224824D01*
X412475Y249824D02*
Y224824D01*
X199975Y427824D02*
X224975D01*
X199975Y606324D02*
X224975D01*
X199975Y784824D02*
X224975D01*
X199975Y962824D02*
X224975D01*
X199975Y1141324D02*
X224975D01*
X274975Y1146324D02*
Y1319824D01*
X264975Y1146324D02*
Y1319824D01*
X244975Y1146324D02*
Y1319824D01*
X234975Y1146324D02*
Y1319824D01*
X254975Y1146324D02*
Y1319824D01*
X224975D02*
Y1146324D01*
X224975D02*
X284975D01*
X284975D02*
Y1319824D01*
X284975D02*
X224975D01*
X234975Y1251324D02*
X284975D01*
X234975Y1296324D02*
X284975D01*
X234975Y1176324D02*
X284975D01*
X412475Y1344824D02*
Y1319824D01*
X602475Y1344824D02*
Y1319824D01*
X787475Y1344824D02*
Y1319824D01*
X894975Y1019824D02*
X974975D01*
X954975Y1069824D02*
Y944824D01*
X914975Y1069324D02*
Y944824D01*
X974975Y1319824D02*
X850475D01*
X850475D02*
Y1069824D01*
X850475D02*
X894975D01*
X894975D02*
Y944824D01*
X894975D02*
X974975D01*
X974975D02*
Y1319824D01*
X934975Y1069824D02*
Y944824D01*
X874975Y1319824D02*
Y1069824D01*
X850475D02*
X974975D01*
X962475Y1319824D02*
Y1069824D01*
X914975Y1129824D02*
X962475D01*
X914975Y1164824D02*
X962475D01*
Y1229824D02*
X974975D01*
X914975Y1294824D02*
X962475D01*
X914975Y1319824D02*
Y1069324D01*
X966850Y1075506D02*
X966225Y1075052D01*
X965912Y1074370*
X965912D02*
Y1073461D01*
X965912D02*
X966225Y1072779D01*
X966850Y1072324*
X966850D02*
X967475D01*
X967475D02*
X968100Y1072552D01*
X968412Y1072779*
X968412D02*
X968725Y1073233D01*
X968725D02*
X969350Y1074597D01*
X969350D02*
X969662Y1075052D01*
X969662D02*
X969975Y1075279D01*
X970600Y1075506*
X970600D02*
X971537D01*
X971537D02*
X972162Y1075052D01*
X972162D02*
X972475Y1074370D01*
Y1073461*
X972162Y1072779*
X972162D02*
X971537Y1072324D01*
X967475Y1080961D02*
X966850Y1080733D01*
X966850D02*
X966225Y1080279D01*
X965912Y1079824*
X965912D02*
Y1078915D01*
X965912D02*
X966225Y1078461D01*
X966850Y1078006*
X966850D02*
X967475Y1077779D01*
X968412Y1077552*
X968412D02*
X969975D01*
X970912Y1077779*
X970912D02*
X971537Y1078006D01*
X971537D02*
X972162Y1078461D01*
X972162D02*
X972475Y1078915D01*
X972475D02*
Y1079824D01*
X972475D02*
X972162Y1080279D01*
X972162D02*
X971537Y1080733D01*
X971537D02*
X970912Y1080961D01*
X965912Y1084824D02*
X972475Y1083006D01*
X965912Y1084824D02*
X972475Y1086642D01*
X970287Y1083688D02*
Y1085961D01*
X965912Y1088688D02*
X972475D01*
Y1091415*
X965912Y1093461D02*
X972475D01*
X965912D02*
Y1096415D01*
X969037Y1093461D02*
Y1095279D01*
X972475Y1093461D02*
Y1096415D01*
X968100Y1098688D02*
X968412Y1098461D01*
X968412D02*
X968725Y1098688D01*
X968412Y1098915*
X968412D02*
X968100Y1098688D01*
X971850D02*
X972162Y1098461D01*
X972162D02*
X972475Y1098688D01*
X972162Y1098915*
X972162D02*
X971850Y1098688D01*
X235912Y1261642D02*
X242475Y1259824D01*
X235912Y1261642D02*
X242475Y1263461D01*
X240287Y1260506D02*
Y1262779D01*
X235912Y1265506D02*
X242475D01*
X235912D02*
Y1267552D01*
X235912D02*
X236225Y1268233D01*
X236225D02*
X236537Y1268461D01*
X236537D02*
X237162Y1268688D01*
X237162D02*
X238100D01*
X238725Y1268461*
X239037Y1268233*
X239037D02*
X239350Y1267552D01*
Y1265506*
X235912Y1270733D02*
X242475D01*
X235912D02*
Y1272779D01*
X235912D02*
X236225Y1273461D01*
X236537Y1273688*
X236537D02*
X237162Y1273915D01*
X237162D02*
X238100D01*
X238100D02*
X238725Y1273688D01*
X239037Y1273461*
X239037D02*
X239350Y1272779D01*
Y1270733*
X235912Y1275961D02*
X242475D01*
X235912D02*
Y1278006D01*
X235912D02*
X236225Y1278688D01*
X236537Y1278915*
X236537D02*
X237162Y1279142D01*
X237162D02*
X237787D01*
X237787D02*
X238412Y1278915D01*
X238412D02*
X238725Y1278688D01*
X239037Y1278006*
X239037D02*
Y1275961D01*
Y1277552D02*
X242475Y1279142D01*
X235912Y1282552D02*
X236225Y1282097D01*
X236225D02*
X236850Y1281642D01*
X236850D02*
X237475Y1281415D01*
X237475D02*
X238412Y1281188D01*
X238412D02*
X239975D01*
X240912Y1281415*
X240912D02*
X241537Y1281642D01*
X241537D02*
X242162Y1282097D01*
X242162D02*
X242475Y1282552D01*
Y1283461*
X242162Y1283915*
X242162D02*
X241537Y1284370D01*
X241537D02*
X240912Y1284597D01*
X240912D02*
X239975Y1284824D01*
X239975D02*
X238412D01*
X238412D02*
X237475Y1284597D01*
X237475D02*
X236850Y1284370D01*
X236225Y1283915*
X236225D02*
X235912Y1283461D01*
X235912D02*
Y1282552D01*
Y1286870D02*
X242475Y1288688D01*
X235912Y1290506D02*
X242475Y1288688D01*
X235912Y1292552D02*
X242475D01*
X235912D02*
Y1295506D01*
X239037Y1292552D02*
Y1294370D01*
X242475Y1292552D02*
Y1295506D01*
X235912Y1297552D02*
X242475D01*
X235912D02*
Y1299142D01*
X235912D02*
X236225Y1299824D01*
X236225D02*
X236850Y1300279D01*
X237475Y1300506*
X237475D02*
X238412Y1300733D01*
X238412D02*
X239975D01*
X239975D02*
X240912Y1300506D01*
X240912D02*
X241537Y1300279D01*
X241537D02*
X242162Y1299824D01*
X242162D02*
X242475Y1299142D01*
X242475D02*
Y1297552D01*
X238100Y1303006D02*
X238412Y1302779D01*
X238412D02*
X238725Y1303006D01*
X238725D02*
X238412Y1303233D01*
X238412D02*
X238100Y1303006D01*
X241850D02*
X242162Y1302779D01*
X242162D02*
X242475Y1303006D01*
X242475D02*
X242162Y1303233D01*
X242162D02*
X241850Y1303006D01*
X235912Y1202324D02*
X242475D01*
X235912D02*
Y1205279D01*
X239037Y1202324D02*
Y1204142D01*
X242475Y1202324D02*
Y1205279D01*
X237475Y1210733D02*
X236850Y1210506D01*
X236850D02*
X236225Y1210052D01*
X235912Y1209597*
X235912D02*
Y1208688D01*
X235912D02*
X236225Y1208233D01*
X236225D02*
X236850Y1207779D01*
X237475Y1207552*
X238412Y1207324*
X238412D02*
X239975D01*
X239975D02*
X240912Y1207552D01*
X240912D02*
X241537Y1207779D01*
X241537D02*
X242162Y1208233D01*
X242162D02*
X242475Y1208688D01*
Y1209597*
X242475D02*
X242162Y1210052D01*
X242162D02*
X241537Y1210506D01*
X241537D02*
X240912Y1210733D01*
X235912Y1214142D02*
X236225Y1213688D01*
X236850Y1213233*
X236850D02*
X237475Y1213006D01*
X237475D02*
X238412Y1212779D01*
X238412D02*
X239975D01*
X240912Y1213006*
X240912D02*
X241537Y1213233D01*
X241537D02*
X242162Y1213688D01*
X242162D02*
X242475Y1214142D01*
X242475D02*
Y1215052D01*
X242162Y1215506*
X242162D02*
X241537Y1215961D01*
X241537D02*
X240912Y1216188D01*
X240912D02*
X239975Y1216415D01*
X239975D02*
X238412D01*
X238412D02*
X237475Y1216188D01*
X236850Y1215961*
X236225Y1215506*
X236225D02*
X235912Y1215052D01*
X235912D02*
Y1214142D01*
Y1222552D02*
X242475D01*
X235912D02*
X242475Y1225733D01*
X235912D02*
X242475D01*
X235912Y1229142D02*
X236225Y1228688D01*
X236850Y1228233*
X236850D02*
X237475Y1228006D01*
X237475D02*
X238412Y1227779D01*
X238412D02*
X239975D01*
X240912Y1228006*
X240912D02*
X241537Y1228233D01*
X241537D02*
X242162Y1228688D01*
X242162D02*
X242475Y1229142D01*
X242475D02*
Y1230052D01*
X242162Y1230506*
X242162D02*
X241537Y1230961D01*
X241537D02*
X240912Y1231188D01*
X240912D02*
X239975Y1231415D01*
X239975D02*
X238412D01*
X238412D02*
X237475Y1231188D01*
X236850Y1230961*
X236225Y1230506*
X236225D02*
X235912Y1230052D01*
X235912D02*
Y1229142D01*
X238100Y1233688D02*
X238412Y1233461D01*
X238412D02*
X238725Y1233688D01*
X238412Y1233915*
X238412D02*
X238100Y1233688D01*
X241850D02*
X242162Y1233461D01*
X242162D02*
X242475Y1233688D01*
X242162Y1233915*
X242162D02*
X241850Y1233688D01*
X235912Y1157324D02*
X242475D01*
X242475D02*
Y1160052D01*
X235912Y1163688D02*
X242475D01*
X235912Y1162097D02*
Y1165279D01*
Y1167324D02*
X242475D01*
X235912D02*
Y1169370D01*
X235912D02*
X236225Y1170052D01*
X236537Y1170279*
X236537D02*
X237162Y1170506D01*
X237162D02*
X237787D01*
X237787D02*
X238412Y1170279D01*
X238412D02*
X238725Y1170052D01*
X239037Y1169370*
X239037D02*
Y1167324D01*
Y1168915D02*
X242475Y1170506D01*
X918412Y1299824D02*
X924975D01*
X918412D02*
Y1301870D01*
X918412D02*
X918725Y1302552D01*
X919037Y1302779*
X919037D02*
X919662Y1303006D01*
X919662D02*
X920287D01*
X920287D02*
X920912Y1302779D01*
X920912D02*
X921225Y1302552D01*
X921537Y1301870*
X921537D02*
Y1299824D01*
Y1301415D02*
X924975Y1303006D01*
X918412Y1305052D02*
X924975D01*
X918412D02*
Y1308006D01*
X921537Y1305052D02*
Y1306870D01*
X924975Y1305052D02*
Y1308006D01*
X918412Y1310052D02*
X924975Y1311870D01*
X918412Y1313688D02*
X924975Y1311870D01*
X920600Y1315961D02*
X920912Y1315733D01*
X920912D02*
X921225Y1315961D01*
X920912Y1316188*
X920912D02*
X920600Y1315961D01*
X924350D02*
X924662Y1315733D01*
X924662D02*
X924975Y1315961D01*
X924662Y1316188*
X924662D02*
X924350Y1315961D01*
X919350Y1143006D02*
X918725Y1142552D01*
X918412Y1141870*
X918412D02*
Y1140961D01*
X918412D02*
X918725Y1140279D01*
X919350Y1139824*
X919350D02*
X919975D01*
X919975D02*
X920600Y1140052D01*
X920912Y1140279*
X920912D02*
X921225Y1140733D01*
X921225D02*
X921850Y1142097D01*
X921850D02*
X922162Y1142552D01*
X922162D02*
X922475Y1142779D01*
X923100Y1143006*
X923100D02*
X924037D01*
X924037D02*
X924662Y1142552D01*
X924662D02*
X924975Y1141870D01*
Y1140961*
X924662Y1140279*
X924662D02*
X924037Y1139824D01*
X918412Y1145052D02*
X924975D01*
X918412Y1150279D02*
X924975Y1147097D01*
X918412D02*
Y1150279D01*
X924975Y1147097D02*
Y1150279D01*
X918412Y1152324D02*
X924975D01*
X918412D02*
Y1155279D01*
X921537Y1152324D02*
Y1154142D01*
X924975Y1152324D02*
Y1155279D01*
X920600Y1157552D02*
X920912Y1157324D01*
X920912D02*
X921225Y1157552D01*
X920912Y1157779*
X920912D02*
X920600Y1157552D01*
X924350D02*
X924662Y1157324D01*
X924662D02*
X924975Y1157552D01*
X924662Y1157779*
X924662D02*
X924350Y1157552D01*
X919975Y1095733D02*
X919350Y1095506D01*
X919350D02*
X918725Y1095052D01*
X918412Y1094597*
X918412D02*
Y1093688D01*
X918412D02*
X918725Y1093233D01*
X918725D02*
X919350Y1092779D01*
X919975Y1092552*
X920912Y1092324*
X920912D02*
X922475D01*
X922475D02*
X923412Y1092552D01*
X923412D02*
X924037Y1092779D01*
X924037D02*
X924662Y1093233D01*
X924662D02*
X924975Y1093688D01*
Y1094597*
X924975D02*
X924662Y1095052D01*
X924662D02*
X924037Y1095506D01*
X924037D02*
X923412Y1095733D01*
X918412Y1099142D02*
X918725Y1098688D01*
X919350Y1098233*
X919350D02*
X919975Y1098006D01*
X919975D02*
X920912Y1097779D01*
X920912D02*
X922475D01*
X923412Y1098006*
X923412D02*
X924037Y1098233D01*
X924037D02*
X924662Y1098688D01*
X924662D02*
X924975Y1099142D01*
X924975D02*
Y1100052D01*
X924662Y1100506*
X924662D02*
X924037Y1100961D01*
X924037D02*
X923412Y1101188D01*
X923412D02*
X922475Y1101415D01*
X922475D02*
X920912D01*
X920912D02*
X919975Y1101188D01*
X919350Y1100961*
X918725Y1100506*
X918725D02*
X918412Y1100052D01*
X918412D02*
Y1099142D01*
Y1103461D02*
X924975D01*
X918412D02*
Y1105052D01*
X918412D02*
X918725Y1105733D01*
X918725D02*
X919350Y1106188D01*
X919975Y1106415*
X919975D02*
X920912Y1106642D01*
X920912D02*
X922475D01*
X922475D02*
X923412Y1106415D01*
X923412D02*
X924037Y1106188D01*
X924037D02*
X924662Y1105733D01*
X924662D02*
X924975Y1105052D01*
Y1103461*
X918412Y1108688D02*
X924975D01*
X918412D02*
Y1111642D01*
X921537Y1108688D02*
Y1110506D01*
X924975Y1108688D02*
Y1111642D01*
X920600Y1113915D02*
X920912Y1113688D01*
X920912D02*
X921225Y1113915D01*
X921225D02*
X920912Y1114142D01*
X920912D02*
X920600Y1113915D01*
X924350D02*
X924662Y1113688D01*
X924662D02*
X924975Y1113915D01*
X924975D02*
X924662Y1114142D01*
X924662D02*
X924350Y1113915D01*
X235912Y1298824D02*
X242475D01*
X235912D02*
Y1300415D01*
X235912D02*
X236225Y1301097D01*
X236225D02*
X236850Y1301552D01*
X237475Y1301779*
X238412Y1302006*
X238412D02*
X239975D01*
X239975D02*
X240912Y1301779D01*
X240912D02*
X241537Y1301552D01*
X241537D02*
X242162Y1301097D01*
X242162D02*
X242475Y1300415D01*
X242475D02*
Y1298824D01*
X235912Y1305870D02*
X242475Y1304052D01*
X235912Y1305870D02*
X242475Y1307688D01*
X240287Y1304733D02*
Y1307006D01*
X235912Y1311324D02*
X242475D01*
X235912Y1309733D02*
Y1312915D01*
Y1314961D02*
X242475D01*
X235912D02*
Y1317915D01*
X239037Y1314961D02*
Y1316779D01*
X242475Y1314961D02*
Y1317915D01*
X238100Y1320188D02*
X238412Y1319961D01*
X238412D02*
X238725Y1320188D01*
X238412Y1320415*
X238412D02*
X238100Y1320188D01*
X241850D02*
X242162Y1319961D01*
X242162D02*
X242475Y1320188D01*
X242162Y1320415*
X242162D02*
X241850Y1320188D01*
X918412Y1204324D02*
X924975D01*
X918412D02*
Y1205915D01*
X918412D02*
X918725Y1206597D01*
X918725D02*
X919350Y1207052D01*
X919975Y1207279*
X920912Y1207506*
X920912D02*
X922475D01*
X922475D02*
X923412Y1207279D01*
X923412D02*
X924037Y1207052D01*
X924037D02*
X924662Y1206597D01*
X924662D02*
X924975Y1205915D01*
X924975D02*
Y1204324D01*
X918412Y1209552D02*
X924975D01*
X918412D02*
Y1211597D01*
X918412D02*
X918725Y1212279D01*
X919037Y1212506*
X919037D02*
X919662Y1212733D01*
X919662D02*
X920287D01*
X920287D02*
X920912Y1212506D01*
X920912D02*
X921225Y1212279D01*
X921537Y1211597*
X921537D02*
Y1209552D01*
Y1211142D02*
X924975Y1212733D01*
X918412Y1216597D02*
X924975Y1214779D01*
X918412Y1216597D02*
X924975Y1218415D01*
X922787Y1215461D02*
Y1217733D01*
X918412Y1220461D02*
X924975Y1221597D01*
X918412Y1222733D02*
X924975Y1221597D01*
X918412Y1222733D02*
X924975Y1223870D01*
X918412Y1225006D02*
X924975Y1223870D01*
X918412Y1227052D02*
X924975D01*
X918412Y1229097D02*
X924975D01*
X918412D02*
X924975Y1232279D01*
X918412D02*
X924975D01*
X919975Y1237733D02*
X919350Y1237506D01*
X919350D02*
X918725Y1237052D01*
X918412Y1236597*
X918412D02*
Y1235688D01*
X918412D02*
X918725Y1235233D01*
X918725D02*
X919350Y1234779D01*
X919975Y1234552*
X920912Y1234324*
X920912D02*
X922475D01*
X922475D02*
X923412Y1234552D01*
X923412D02*
X924037Y1234779D01*
X924037D02*
X924662Y1235233D01*
X924662D02*
X924975Y1235688D01*
Y1236597*
X924975D02*
X924662Y1237052D01*
X924662D02*
X924037Y1237506D01*
X924037D02*
X923412Y1237733D01*
X923412D02*
X922475D01*
Y1236597D02*
Y1237733D01*
X918412Y1243870D02*
X924975D01*
X918412D02*
X924975Y1247052D01*
X918412D02*
X924975D01*
X918412Y1250461D02*
X918725Y1250006D01*
X918725D02*
X919350Y1249552D01*
X919975Y1249324*
X919975D02*
X920912Y1249097D01*
X920912D02*
X922475D01*
X922475D02*
X923412Y1249324D01*
X923412D02*
X924037Y1249552D01*
X924037D02*
X924662Y1250006D01*
X924662D02*
X924975Y1250461D01*
Y1251370*
X924662Y1251824*
X924662D02*
X924037Y1252279D01*
X924037D02*
X923412Y1252506D01*
X923412D02*
X922475Y1252733D01*
X922475D02*
X920912D01*
X920912D02*
X919975Y1252506D01*
X919975D02*
X919350Y1252279D01*
X918725Y1251824*
X918725D02*
X918412Y1251370D01*
X918412D02*
Y1250461D01*
X920600Y1255006D02*
X920912Y1254779D01*
X920912D02*
X921225Y1255006D01*
X921225D02*
X920912Y1255233D01*
X920912D02*
X920600Y1255006D01*
X924350D02*
X924662Y1254779D01*
X924662D02*
X924975Y1255006D01*
X924975D02*
X924662Y1255233D01*
X924662D02*
X924350Y1255006D01*
X878412Y1073415D02*
X884975D01*
X878412Y1071824D02*
Y1075006D01*
Y1077052D02*
X884975D01*
X878412Y1080688D02*
X884975D01*
X878412Y1079097D02*
Y1082279D01*
Y1084324D02*
X884975D01*
X884975D02*
Y1087052D01*
X878412Y1089097D02*
X884975D01*
X878412D02*
Y1092052D01*
X881537Y1089097D02*
Y1090915D01*
X884975Y1089097D02*
Y1092052D01*
X880600Y1094324D02*
X880912Y1094097D01*
X880912D02*
X881225Y1094324D01*
X881225D02*
X880912Y1094552D01*
X880912D02*
X880600Y1094324D01*
X884350D02*
X884662Y1094097D01*
X884662D02*
X884975Y1094324D01*
X884975D02*
X884662Y1094552D01*
X884662D02*
X884350Y1094324D01*
X955912Y946824D02*
X962475D01*
X955912D02*
Y948870D01*
X955912D02*
X956225Y949552D01*
X956537Y949779*
X956537D02*
X957162Y950006D01*
X957162D02*
X957787D01*
X957787D02*
X958412Y949779D01*
X958412D02*
X958725Y949552D01*
X959037Y948870*
X959037D02*
Y946824D01*
Y948415D02*
X962475Y950006D01*
X955912Y952052D02*
X962475D01*
X955912D02*
Y955006D01*
X959037Y952052D02*
Y953870D01*
X962475Y952052D02*
Y955006D01*
X955912Y957052D02*
X962475D01*
Y959779*
X955912Y961824D02*
X962475D01*
X955912D02*
Y964779D01*
X959037Y961824D02*
Y963642D01*
X962475Y961824D02*
Y964779D01*
X955912Y968642D02*
X962475Y966824D01*
X955912Y968642D02*
X962475Y970461D01*
X960287Y967506D02*
Y969779D01*
X956850Y975688D02*
X956225Y975233D01*
X956225D02*
X955912Y974552D01*
X955912D02*
Y973642D01*
X955912D02*
X956225Y972961D01*
X956850Y972506*
X956850D02*
X957475D01*
X957475D02*
X958100Y972733D01*
X958100D02*
X958412Y972961D01*
X958412D02*
X958725Y973415D01*
X958725D02*
X959350Y974779D01*
X959662Y975233*
X959662D02*
X959975Y975461D01*
X960600Y975688*
X961537*
X961537D02*
X962162Y975233D01*
X962162D02*
X962475Y974552D01*
Y973642*
X962475D02*
X962162Y972961D01*
X962162D02*
X961537Y972506D01*
X955912Y977733D02*
X962475D01*
X955912D02*
Y980688D01*
X959037Y977733D02*
Y979552D01*
X962475Y977733D02*
Y980688D01*
X955912Y982733D02*
X962475D01*
X955912D02*
Y984324D01*
X955912D02*
X956225Y985006D01*
X956225D02*
X956850Y985461D01*
X957475Y985688*
X958412Y985915*
X958412D02*
X959975D01*
X959975D02*
X960912Y985688D01*
X960912D02*
X961537Y985461D01*
X961537D02*
X962162Y985006D01*
X962162D02*
X962475Y984324D01*
X962475D02*
Y982733D01*
X958100Y988188D02*
X958412Y987961D01*
X958412D02*
X958725Y988188D01*
X958412Y988415*
X958412D02*
X958100Y988188D01*
X961850D02*
X962162Y987961D01*
X962162D02*
X962475Y988188D01*
X962162Y988415*
X962162D02*
X961850Y988188D01*
X955912Y1021824D02*
X962475D01*
X955912D02*
Y1023415D01*
X955912D02*
X956225Y1024097D01*
X956225D02*
X956850Y1024552D01*
X957475Y1024779*
X958412Y1025006*
X958412D02*
X959975D01*
X959975D02*
X960912Y1024779D01*
X960912D02*
X961537Y1024552D01*
X961537D02*
X962162Y1024097D01*
X962162D02*
X962475Y1023415D01*
X962475D02*
Y1021824D01*
X955912Y1028870D02*
X962475Y1027052D01*
X955912Y1028870D02*
X962475Y1030688D01*
X960287Y1027733D02*
Y1030006D01*
X955912Y1034324D02*
X962475D01*
X955912Y1032733D02*
Y1035915D01*
Y1037961D02*
X962475D01*
X955912D02*
Y1040915D01*
X959037Y1037961D02*
Y1039779D01*
X962475Y1037961D02*
Y1040915D01*
X955912Y1042961D02*
X962475D01*
X955912D02*
Y1044552D01*
X955912D02*
X956225Y1045233D01*
X956225D02*
X956850Y1045688D01*
X957475Y1045915*
X957475D02*
X958412Y1046142D01*
X958412D02*
X959975D01*
X959975D02*
X960912Y1045915D01*
X960912D02*
X961537Y1045688D01*
X961537D02*
X962162Y1045233D01*
X962162D02*
X962475Y1044552D01*
Y1042961*
X958100Y1048415D02*
X958412Y1048188D01*
X958412D02*
X958725Y1048415D01*
X958725D02*
X958412Y1048642D01*
X958412D02*
X958100Y1048415D01*
X961850D02*
X962162Y1048188D01*
X962162D02*
X962475Y1048415D01*
X962475D02*
X962162Y1048642D01*
X962162D02*
X961850Y1048415D01*
X935912Y1021824D02*
X942475D01*
X935912D02*
Y1023415D01*
X935912D02*
X936225Y1024097D01*
X936225D02*
X936850Y1024552D01*
X937475Y1024779*
X938412Y1025006*
X938412D02*
X939975D01*
X939975D02*
X940912Y1024779D01*
X940912D02*
X941537Y1024552D01*
X941537D02*
X942162Y1024097D01*
X942162D02*
X942475Y1023415D01*
X942475D02*
Y1021824D01*
X935912Y1028870D02*
X942475Y1027052D01*
X935912Y1028870D02*
X942475Y1030688D01*
X940287Y1027733D02*
Y1030006D01*
X935912Y1034324D02*
X942475D01*
X935912Y1032733D02*
Y1035915D01*
Y1037961D02*
X942475D01*
X935912D02*
Y1040915D01*
X939037Y1037961D02*
Y1039779D01*
X942475Y1037961D02*
Y1040915D01*
X935912Y1042961D02*
X942475D01*
X935912D02*
Y1044552D01*
X935912D02*
X936225Y1045233D01*
X936225D02*
X936850Y1045688D01*
X937475Y1045915*
X937475D02*
X938412Y1046142D01*
X938412D02*
X939975D01*
X939975D02*
X940912Y1045915D01*
X940912D02*
X941537Y1045688D01*
X941537D02*
X942162Y1045233D01*
X942162D02*
X942475Y1044552D01*
Y1042961*
X938100Y1048415D02*
X938412Y1048188D01*
X938412D02*
X938725Y1048415D01*
X938725D02*
X938412Y1048642D01*
X938412D02*
X938100Y1048415D01*
X941850D02*
X942162Y1048188D01*
X942162D02*
X942475Y1048415D01*
X942475D02*
X942162Y1048642D01*
X942162D02*
X941850Y1048415D01*
X935912Y948188D02*
X936225Y947733D01*
X936225D02*
X936850Y947279D01*
X937475Y947052*
X938412Y946824*
X938412D02*
X939975D01*
X939975D02*
X940912Y947052D01*
X940912D02*
X941537Y947279D01*
X941537D02*
X942162Y947733D01*
X942162D02*
X942475Y948188D01*
Y949097*
X942475D02*
X942162Y949552D01*
X942162D02*
X941537Y950006D01*
X941537D02*
X940912Y950233D01*
X940912D02*
X939975Y950461D01*
X938412*
X938412D02*
X937475Y950233D01*
X937475D02*
X936850Y950006D01*
X936850D02*
X936225Y949552D01*
X935912Y949097*
X935912D02*
Y948188D01*
X941225Y948870D02*
X943100Y950233D01*
X935912Y952506D02*
X940600D01*
X940600D02*
X941537Y952733D01*
X941537D02*
X942162Y953188D01*
X942162D02*
X942475Y953870D01*
Y954324*
X942475D02*
X942162Y955006D01*
X942162D02*
X941537Y955461D01*
X941537D02*
X940600Y955688D01*
X935912*
Y959552D02*
X942475Y957733D01*
X935912Y959552D02*
X942475Y961370D01*
X940287Y958415D02*
Y960688D01*
X935912Y963415D02*
X942475D01*
X942475D02*
Y966142D01*
X935912Y968188D02*
X942475D01*
X935912Y971824D02*
X942475D01*
X935912Y970233D02*
Y973415D01*
Y975461D02*
X939037Y977279D01*
X939037D02*
X942475D01*
X935912Y979097D02*
X939037Y977279D01*
X937475Y988642D02*
X936850Y988415D01*
X936850D02*
X936225Y987961D01*
X935912Y987506*
X935912D02*
Y986597D01*
X935912D02*
X936225Y986142D01*
X936225D02*
X936850Y985688D01*
X937475Y985461*
X938412Y985233*
X938412D02*
X939975D01*
X939975D02*
X940912Y985461D01*
X940912D02*
X941537Y985688D01*
X941537D02*
X942162Y986142D01*
X942162D02*
X942475Y986597D01*
X942475D02*
Y987506D01*
X942475D02*
X942162Y987961D01*
X942162D02*
X941537Y988415D01*
X941537D02*
X940912Y988642D01*
X935912Y992052D02*
X936225Y991597D01*
X936225D02*
X936850Y991142D01*
X936850D02*
X937475Y990915D01*
X937475D02*
X938412Y990688D01*
X938412D02*
X939975D01*
X940912Y990915*
X940912D02*
X941537Y991142D01*
X941537D02*
X942162Y991597D01*
X942162D02*
X942475Y992052D01*
Y992961*
X942162Y993415*
X942162D02*
X941537Y993870D01*
X941537D02*
X940912Y994097D01*
X940912D02*
X939975Y994324D01*
X939975D02*
X938412D01*
X938412D02*
X937475Y994097D01*
X937475D02*
X936850Y993870D01*
X936225Y993415*
X936225D02*
X935912Y992961D01*
X935912D02*
Y992052D01*
Y996370D02*
X942475D01*
X935912D02*
X942475Y999552D01*
X935912D02*
X942475D01*
X935912Y1003188D02*
X942475D01*
X935912Y1001597D02*
Y1004779D01*
Y1006824D02*
X942475D01*
X935912D02*
Y1008870D01*
X935912D02*
X936225Y1009552D01*
X936537Y1009779*
X936537D02*
X937162Y1010006D01*
X937162D02*
X937787D01*
X937787D02*
X938412Y1009779D01*
X938412D02*
X938725Y1009552D01*
X939037Y1008870*
X939037D02*
Y1006824D01*
Y1008415D02*
X942475Y1010006D01*
X935912Y1013415D02*
X936225Y1012961D01*
X936850Y1012506*
X936850D02*
X937475Y1012279D01*
X938412Y1012052*
X938412D02*
X939975D01*
X940912Y1012279*
X940912D02*
X941537Y1012506D01*
X941537D02*
X942162Y1012961D01*
X942162D02*
X942475Y1013415D01*
X942475D02*
Y1014324D01*
X942475D02*
X942162Y1014779D01*
X942162D02*
X941537Y1015233D01*
X941537D02*
X940912Y1015461D01*
X940912D02*
X939975Y1015688D01*
X938412*
X938412D02*
X937475Y1015461D01*
X936850Y1015233*
X936850D02*
X936225Y1014779D01*
X935912Y1014324*
X935912D02*
Y1013415D01*
Y1017733D02*
X942475D01*
X942475D02*
Y1020461D01*
X938100Y1022733D02*
X938412Y1022506D01*
X938412D02*
X938725Y1022733D01*
X938725D02*
X938412Y1022961D01*
X938412D02*
X938100Y1022733D01*
X941850D02*
X942162Y1022506D01*
X942162D02*
X942475Y1022733D01*
X942475D02*
X942162Y1022961D01*
X942162D02*
X941850Y1022733D01*
X917475Y950233D02*
X916850Y950006D01*
X916850D02*
X916225Y949552D01*
X915912Y949097*
X915912D02*
Y948188D01*
X915912D02*
X916225Y947733D01*
X916225D02*
X916850Y947279D01*
X917475Y947052*
X918412Y946824*
X918412D02*
X919975D01*
X919975D02*
X920912Y947052D01*
X920912D02*
X921537Y947279D01*
X921537D02*
X922162Y947733D01*
X922162D02*
X922475Y948188D01*
Y949097*
X922475D02*
X922162Y949552D01*
X922162D02*
X921537Y950006D01*
X921537D02*
X920912Y950233D01*
X915912Y952279D02*
X922475D01*
X915912Y955461D02*
X922475D01*
X919037Y952279D02*
Y955461D01*
X915912Y957506D02*
X922475D01*
X915912D02*
Y960461D01*
X919037Y957506D02*
Y959324D01*
X922475Y957506D02*
Y960461D01*
X917475Y965915D02*
X916850Y965688D01*
X916225Y965233*
X916225D02*
X915912Y964779D01*
X915912D02*
Y963870D01*
X915912D02*
X916225Y963415D01*
X916225D02*
X916850Y962961D01*
X917475Y962733*
X917475D02*
X918412Y962506D01*
X918412D02*
X919975D01*
X919975D02*
X920912Y962733D01*
X920912D02*
X921537Y962961D01*
X921537D02*
X922162Y963415D01*
X922162D02*
X922475Y963870D01*
Y964779*
X922162Y965233*
X922162D02*
X921537Y965688D01*
X921537D02*
X920912Y965915D01*
X915912Y967961D02*
X922475D01*
X915912Y971142D02*
X920287Y967961D01*
X918725Y969097D02*
X922475Y971142D01*
X915912Y973188D02*
X922475D01*
X915912D02*
Y976142D01*
X919037Y973188D02*
Y975006D01*
X922475Y973188D02*
Y976142D01*
X915912Y978188D02*
X922475D01*
X915912D02*
Y979779D01*
X915912D02*
X916225Y980461D01*
X916850Y980915*
X916850D02*
X917475Y981142D01*
X917475D02*
X918412Y981370D01*
X918412D02*
X919975D01*
X920912Y981142*
X920912D02*
X921537Y980915D01*
X921537D02*
X922162Y980461D01*
X922162D02*
X922475Y979779D01*
Y978188*
X918100Y983642D02*
X918412Y983415D01*
X918412D02*
X918725Y983642D01*
X918725D02*
X918412Y983870D01*
X918412D02*
X918100Y983642D01*
X921850D02*
X922162Y983415D01*
X922162D02*
X922475Y983642D01*
X922475D02*
X922162Y983870D01*
X922162D02*
X921850Y983642D01*
X915912Y1021824D02*
X922475D01*
X915912D02*
Y1023415D01*
X915912D02*
X916225Y1024097D01*
X916225D02*
X916850Y1024552D01*
X917475Y1024779*
X918412Y1025006*
X918412D02*
X919975D01*
X919975D02*
X920912Y1024779D01*
X920912D02*
X921537Y1024552D01*
X921537D02*
X922162Y1024097D01*
X922162D02*
X922475Y1023415D01*
X922475D02*
Y1021824D01*
X915912Y1028870D02*
X922475Y1027052D01*
X915912Y1028870D02*
X922475Y1030688D01*
X920287Y1027733D02*
Y1030006D01*
X915912Y1034324D02*
X922475D01*
X915912Y1032733D02*
Y1035915D01*
Y1037961D02*
X922475D01*
X915912D02*
Y1040915D01*
X919037Y1037961D02*
Y1039779D01*
X922475Y1037961D02*
Y1040915D01*
X915912Y1042961D02*
X922475D01*
X915912D02*
Y1044552D01*
X915912D02*
X916225Y1045233D01*
X916225D02*
X916850Y1045688D01*
X917475Y1045915*
X917475D02*
X918412Y1046142D01*
X918412D02*
X919975D01*
X919975D02*
X920912Y1045915D01*
X920912D02*
X921537Y1045688D01*
X921537D02*
X922162Y1045233D01*
X922162D02*
X922475Y1044552D01*
Y1042961*
X918100Y1048415D02*
X918412Y1048188D01*
X918412D02*
X918725Y1048415D01*
X918725D02*
X918412Y1048642D01*
X918412D02*
X918100Y1048415D01*
X921850D02*
X922162Y1048188D01*
X922162D02*
X922475Y1048415D01*
X922475D02*
X922162Y1048642D01*
X922162D02*
X921850Y1048415D01*
X895912Y1021824D02*
X902475D01*
X895912D02*
Y1023415D01*
X895912D02*
X896225Y1024097D01*
X896225D02*
X896850Y1024552D01*
X897475Y1024779*
X898412Y1025006*
X898412D02*
X899975D01*
X899975D02*
X900912Y1024779D01*
X900912D02*
X901537Y1024552D01*
X901537D02*
X902162Y1024097D01*
X902162D02*
X902475Y1023415D01*
X902475D02*
Y1021824D01*
X895912Y1028870D02*
X902475Y1027052D01*
X895912Y1028870D02*
X902475Y1030688D01*
X900287Y1027733D02*
Y1030006D01*
X895912Y1034324D02*
X902475D01*
X895912Y1032733D02*
Y1035915D01*
Y1037961D02*
X902475D01*
X895912D02*
Y1040915D01*
X899037Y1037961D02*
Y1039779D01*
X902475Y1037961D02*
Y1040915D01*
X895912Y1042961D02*
X902475D01*
X895912D02*
Y1044552D01*
X895912D02*
X896225Y1045233D01*
X896225D02*
X896850Y1045688D01*
X897475Y1045915*
X897475D02*
X898412Y1046142D01*
X898412D02*
X899975D01*
X899975D02*
X900912Y1045915D01*
X900912D02*
X901537Y1045688D01*
X901537D02*
X902162Y1045233D01*
X902162D02*
X902475Y1044552D01*
Y1042961*
X898100Y1048415D02*
X898412Y1048188D01*
X898412D02*
X898725Y1048415D01*
X898725D02*
X898412Y1048642D01*
X898412D02*
X898100Y1048415D01*
X901850D02*
X902162Y1048188D01*
X902162D02*
X902475Y1048415D01*
X902475D02*
X902162Y1048642D01*
X902162D02*
X901850Y1048415D01*
X895912Y946824D02*
X902475D01*
X895912D02*
Y948415D01*
X895912D02*
X896225Y949097D01*
X896225D02*
X896850Y949552D01*
X897475Y949779*
X898412Y950006*
X898412D02*
X899975D01*
X899975D02*
X900912Y949779D01*
X900912D02*
X901537Y949552D01*
X901537D02*
X902162Y949097D01*
X902162D02*
X902475Y948415D01*
X902475D02*
Y946824D01*
X895912Y952052D02*
X902475D01*
X895912D02*
Y954097D01*
X895912D02*
X896225Y954779D01*
X896537Y955006*
X896537D02*
X897162Y955233D01*
X897162D02*
X897787D01*
X897787D02*
X898412Y955006D01*
X898412D02*
X898725Y954779D01*
X899037Y954097*
X899037D02*
Y952052D01*
Y953642D02*
X902475Y955233D01*
X895912Y959097D02*
X902475Y957279D01*
X895912Y959097D02*
X902475Y960915D01*
X900287Y957961D02*
Y960233D01*
X895912Y962961D02*
X902475Y964097D01*
X895912Y965233D02*
X902475Y964097D01*
X895912Y965233D02*
X902475Y966370D01*
X895912Y967506D02*
X902475Y966370D01*
X895912Y969552D02*
X902475D01*
X895912D02*
X902475Y972733D01*
X895912D02*
X902475D01*
X898100Y975006D02*
X898412Y974779D01*
X898412D02*
X898725Y975006D01*
X898725D02*
X898412Y975233D01*
X898412D02*
X898100Y975006D01*
X901850D02*
X902162Y974779D01*
X902162D02*
X902475Y975006D01*
X902475D02*
X902162Y975233D01*
X902162D02*
X901850Y975006D01*
X225912Y1212324D02*
X232475D01*
X225912D02*
Y1214370D01*
X225912D02*
X226225Y1215052D01*
X226537Y1215279*
X226537D02*
X227162Y1215506D01*
X227162D02*
X227787D01*
X227787D02*
X228412Y1215279D01*
X228412D02*
X228725Y1215052D01*
X229037Y1214370*
X229037D02*
Y1212324D01*
Y1213915D02*
X232475Y1215506D01*
X225912Y1217552D02*
X232475D01*
X225912D02*
Y1220506D01*
X229037Y1217552D02*
Y1219370D01*
X232475Y1217552D02*
Y1220506D01*
X225912Y1222552D02*
X232475Y1224370D01*
X225912Y1226188D02*
X232475Y1224370D01*
X225912Y1228233D02*
X232475D01*
X226850Y1233461D02*
X226225Y1233006D01*
X226225D02*
X225912Y1232324D01*
X225912D02*
Y1231415D01*
X225912D02*
X226225Y1230733D01*
X226225D02*
X226850Y1230279D01*
X227475*
X228100Y1230506*
X228100D02*
X228412Y1230733D01*
X228412D02*
X228725Y1231188D01*
X229350Y1232552*
X229662Y1233006*
X229662D02*
X229975Y1233233D01*
X229975D02*
X230600Y1233461D01*
X231537*
X231537D02*
X232162Y1233006D01*
X232162D02*
X232475Y1232324D01*
X232475D02*
Y1231415D01*
X232475D02*
X232162Y1230733D01*
X232162D02*
X231537Y1230279D01*
X225912Y1235506D02*
X232475D01*
X225912Y1238915D02*
X226225Y1238461D01*
X226850Y1238006*
X226850D02*
X227475Y1237779D01*
X228412Y1237552*
X228412D02*
X229975D01*
X230912Y1237779*
X230912D02*
X231537Y1238006D01*
X231537D02*
X232162Y1238461D01*
X232162D02*
X232475Y1238915D01*
X232475D02*
Y1239824D01*
X232475D02*
X232162Y1240279D01*
X232162D02*
X231537Y1240733D01*
X231537D02*
X230912Y1240961D01*
X230912D02*
X229975Y1241188D01*
X228412*
X228412D02*
X227475Y1240961D01*
X226850Y1240733*
X226850D02*
X226225Y1240279D01*
X225912Y1239824*
X225912D02*
Y1238915D01*
Y1243233D02*
X232475D01*
X225912D02*
X232475Y1246415D01*
X225912D02*
X232475D01*
X225912Y1252552D02*
X232475D01*
X225912D02*
Y1254597D01*
X225912D02*
X226225Y1255279D01*
X226537Y1255506*
X226537D02*
X227162Y1255733D01*
X227162D02*
X227787D01*
X227787D02*
X228412Y1255506D01*
X228412D02*
X228725Y1255279D01*
X229037Y1254597*
X229037D02*
Y1252552D01*
Y1254142D02*
X232475Y1255733D01*
X225912Y1257779D02*
X232475D01*
X225912D02*
Y1260733D01*
X229037Y1257779D02*
Y1259597D01*
X232475Y1257779D02*
Y1260733D01*
X227475Y1266188D02*
X226850Y1265961D01*
X226225Y1265506*
X226225D02*
X225912Y1265052D01*
X225912D02*
Y1264142D01*
X225912D02*
X226225Y1263688D01*
X226850Y1263233*
X226850D02*
X227475Y1263006D01*
X227475D02*
X228412Y1262779D01*
X228412D02*
X229975D01*
X230912Y1263006*
X230912D02*
X231537Y1263233D01*
X231537D02*
X232162Y1263688D01*
X232162D02*
X232475Y1264142D01*
X232475D02*
Y1265052D01*
X232162Y1265506*
X232162D02*
X231537Y1265961D01*
X231537D02*
X230912Y1266188D01*
X225912Y1269597D02*
X226225Y1269142D01*
X226225D02*
X226850Y1268688D01*
X227475Y1268461*
X228412Y1268233*
X228412D02*
X229975D01*
X229975D02*
X230912Y1268461D01*
X230912D02*
X231537Y1268688D01*
X231537D02*
X232162Y1269142D01*
X232162D02*
X232475Y1269597D01*
X232475D02*
Y1270506D01*
X232475D02*
X232162Y1270961D01*
X232162D02*
X231537Y1271415D01*
X231537D02*
X230912Y1271642D01*
X230912D02*
X229975Y1271870D01*
X228412*
X228412D02*
X227475Y1271642D01*
X227475D02*
X226850Y1271415D01*
X226850D02*
X226225Y1270961D01*
X225912Y1270506*
X225912D02*
Y1269597D01*
Y1273915D02*
X232475D01*
X225912D02*
Y1275961D01*
X225912D02*
X226225Y1276642D01*
X226225D02*
X226537Y1276870D01*
X226537D02*
X227162Y1277097D01*
X227162D02*
X227787D01*
X227787D02*
X228412Y1276870D01*
X228412D02*
X228725Y1276642D01*
X228725D02*
X229037Y1275961D01*
X229037D02*
Y1273915D01*
Y1275506D02*
X232475Y1277097D01*
X225912Y1279142D02*
X232475D01*
X225912D02*
Y1280733D01*
X225912D02*
X226225Y1281415D01*
X226225D02*
X226850Y1281870D01*
X227475Y1282097*
X227475D02*
X228412Y1282324D01*
X228412D02*
X229975D01*
X229975D02*
X230912Y1282097D01*
X230912D02*
X231537Y1281870D01*
X231537D02*
X232162Y1281415D01*
X232162D02*
X232475Y1280733D01*
X232475D02*
Y1279142D01*
X966850Y1235506D02*
X966225Y1235052D01*
X965912Y1234370*
X965912D02*
Y1233461D01*
X965912D02*
X966225Y1232779D01*
X966850Y1232324*
X966850D02*
X967475D01*
X967475D02*
X968100Y1232552D01*
X968412Y1232779*
X968412D02*
X968725Y1233233D01*
X968725D02*
X969350Y1234597D01*
X969350D02*
X969662Y1235052D01*
X969662D02*
X969975Y1235279D01*
X970600Y1235506*
X970600D02*
X971537D01*
X971537D02*
X972162Y1235052D01*
X972162D02*
X972475Y1234370D01*
Y1233461*
X972162Y1232779*
X972162D02*
X971537Y1232324D01*
X965912Y1237552D02*
X972475D01*
X965912Y1240733D02*
X972475D01*
X969037Y1237552D02*
Y1240733D01*
X965912Y1242779D02*
X972475D01*
X965912D02*
Y1245733D01*
X969037Y1242779D02*
Y1244597D01*
X972475Y1242779D02*
Y1245733D01*
X965912Y1247779D02*
X972475D01*
X965912D02*
Y1250733D01*
X969037Y1247779D02*
Y1249597D01*
X972475Y1247779D02*
Y1250733D01*
X965912Y1254370D02*
X972475D01*
X965912Y1252779D02*
Y1255961D01*
X968100Y1258233D02*
X968412Y1258006D01*
X968412D02*
X968725Y1258233D01*
X968725D02*
X968412Y1258461D01*
X968412D02*
X968100Y1258233D01*
X971850D02*
X972162Y1258006D01*
X972162D02*
X972475Y1258233D01*
X972475D02*
X972162Y1258461D01*
X972162D02*
X971850Y1258233D01*
X965912Y1282324D02*
X966225Y1281870D01*
X966850Y1281415*
X966850D02*
X967475Y1281188D01*
X968412Y1280961*
X968412D02*
X969975D01*
X970912Y1281188*
X970912D02*
X971537Y1281415D01*
X971537D02*
X972162Y1281870D01*
X972162D02*
X972475Y1282324D01*
X972475D02*
Y1283233D01*
X972475D02*
X972162Y1283688D01*
X972162D02*
X971537Y1284142D01*
X971537D02*
X970912Y1284370D01*
X970912D02*
X969975Y1284597D01*
X969975D02*
X968412D01*
X968412D02*
X967475Y1284370D01*
X966850Y1284142*
X966850D02*
X966225Y1283688D01*
X965912Y1283233*
X965912D02*
Y1282324D01*
Y1286642D02*
X972475D01*
X965912D02*
Y1289597D01*
X969037Y1286642D02*
Y1288461D01*
G54D11*
X866068Y241870D02*
X882475Y237324D01*
X866068Y241870D02*
X882475Y246415D01*
X877006Y239029D02*
Y244711D01*
X678568Y237324D02*
X694975D01*
X678568D02*
Y242438D01*
X678568D02*
X679350Y244142D01*
X679350D02*
X680131Y244711D01*
X681693Y245279*
X681693D02*
X683256D01*
X684818Y244711*
X684818D02*
X685600Y244142D01*
X685600D02*
X686381Y242438D01*
Y237324D02*
Y242438D01*
X687162Y244142*
X687162D02*
X687943Y244711D01*
X687943D02*
X689506Y245279D01*
X691850*
X693412Y244711*
X693412D02*
X694193Y244142D01*
X694193D02*
X694975Y242438D01*
Y237324*
X494975Y245847D02*
X493412Y245279D01*
X493412D02*
X491850Y244142D01*
X491850D02*
X491068Y243006D01*
X491068D02*
Y240733D01*
X491068D02*
X491850Y239597D01*
X491850D02*
X493412Y238461D01*
X493412D02*
X494975Y237892D01*
X494975D02*
X497318Y237324D01*
X497318D02*
X501225D01*
X501225D02*
X503568Y237892D01*
X503568D02*
X505131Y238461D01*
X506693Y239597*
X506693D02*
X507475Y240733D01*
X507475D02*
Y243006D01*
X507475D02*
X506693Y244142D01*
X506693D02*
X505131Y245279D01*
X503568Y245847*
X303568Y237324D02*
X319975D01*
X303568D02*
Y241302D01*
X303568D02*
X304350Y243006D01*
X304350D02*
X305912Y244142D01*
X305912D02*
X307475Y244711D01*
X309818Y245279*
X309818D02*
X313725D01*
X316068Y244711*
X316068D02*
X317631Y244142D01*
X317631D02*
X319193Y243006D01*
X319193D02*
X319975Y241302D01*
Y237324*
X205912Y345642D02*
X204350Y345074D01*
X204350D02*
X203568Y343370D01*
X203568D02*
Y342233D01*
X203568D02*
X204350Y340529D01*
X206693Y339392*
X206693D02*
X210600Y338824D01*
X210600D02*
X214506D01*
X214506D02*
X217631Y339392D01*
X217631D02*
X219193Y340529D01*
X219193D02*
X219975Y342233D01*
X219975D02*
Y342802D01*
X219193Y344506*
X219193D02*
X217631Y345642D01*
X217631D02*
X215287Y346211D01*
X215287D02*
X214506D01*
X212162Y345642*
X212162D02*
X210600Y344506D01*
X210600D02*
X209818Y342802D01*
X209818D02*
Y342233D01*
X209818D02*
X210600Y340529D01*
X212162Y339392*
X212162D02*
X214506Y338824D01*
X203568Y524711D02*
Y519029D01*
X203568D02*
X210600Y518461D01*
X209818Y519029*
X209818D02*
X209037Y520733D01*
X209037D02*
Y522438D01*
X209037D02*
X209818Y524142D01*
X209818D02*
X211381Y525279D01*
X213725Y525847*
X213725D02*
X215287Y525279D01*
X215287D02*
X217631Y524711D01*
X219193Y523574*
X219193D02*
X219975Y521870D01*
Y520165*
X219975D02*
X219193Y518461D01*
X219193D02*
X218412Y517892D01*
X218412D02*
X216850Y517324D01*
X203568Y701006D02*
X214506Y695324D01*
X214506D02*
Y703847D01*
X203568Y701006D02*
X219975D01*
X203568Y868461D02*
Y874711D01*
X203568D02*
X209818Y871302D01*
X209818D02*
Y873006D01*
X209818D02*
X210600Y874142D01*
X210600D02*
X211381Y874711D01*
X213725Y875279*
X215287*
X215287D02*
X217631Y874711D01*
X219193Y873574*
X219193D02*
X219975Y871870D01*
Y870165*
X219975D02*
X219193Y868461D01*
X219193D02*
X218412Y867892D01*
X218412D02*
X216850Y867324D01*
X207475Y1052392D02*
X206693D01*
X206693D02*
X205131Y1052961D01*
X204350Y1053529*
X203568Y1054665*
X203568D02*
Y1056938D01*
X203568D02*
X204350Y1058074D01*
X204350D02*
X205131Y1058642D01*
X205131D02*
X206693Y1059211D01*
X206693D02*
X208256D01*
X209818Y1058642*
X209818D02*
X212162Y1057506D01*
X212162D02*
X219975Y1051824D01*
X219975D02*
Y1059779D01*
X206693Y1230324D02*
X205912Y1231461D01*
X205912D02*
X203568Y1233165D01*
X203568D02*
X219975D01*
X303568Y1324824D02*
X319975D01*
X303568D02*
Y1328802D01*
X303568D02*
X304350Y1330506D01*
X304350D02*
X305912Y1331642D01*
X305912D02*
X307475Y1332211D01*
X309818Y1332779*
X309818D02*
X313725D01*
X316068Y1332211*
X316068D02*
X317631Y1331642D01*
X317631D02*
X319193Y1330506D01*
X319193D02*
X319975Y1328802D01*
Y1324824*
X494975Y1333347D02*
X493412Y1332779D01*
X493412D02*
X491850Y1331642D01*
X491850D02*
X491068Y1330506D01*
X491068D02*
Y1328233D01*
X491068D02*
X491850Y1327097D01*
X491850D02*
X493412Y1325961D01*
X493412D02*
X494975Y1325392D01*
X494975D02*
X497318Y1324824D01*
X497318D02*
X501225D01*
X501225D02*
X503568Y1325392D01*
X503568D02*
X505131Y1325961D01*
X506693Y1327097*
X506693D02*
X507475Y1328233D01*
X507475D02*
Y1330506D01*
X507475D02*
X506693Y1331642D01*
X506693D02*
X505131Y1332779D01*
X503568Y1333347*
X678568Y1324824D02*
X694975D01*
X678568D02*
Y1329938D01*
X678568D02*
X679350Y1331642D01*
X679350D02*
X680131Y1332211D01*
X681693Y1332779*
X681693D02*
X683256D01*
X684818Y1332211*
X684818D02*
X685600Y1331642D01*
X685600D02*
X686381Y1329938D01*
Y1324824D02*
Y1329938D01*
X687162Y1331642*
X687162D02*
X687943Y1332211D01*
X687943D02*
X689506Y1332779D01*
X691850*
X693412Y1332211*
X693412D02*
X694193Y1331642D01*
X694193D02*
X694975Y1329938D01*
Y1324824*
X866068Y1329370D02*
X882475Y1324824D01*
X866068Y1329370D02*
X882475Y1333915D01*
X877006Y1326529D02*
Y1332211D01*
G54D12*
X866938Y1075456D02*
X866323Y1075009D01*
X866015Y1074338*
X866015D02*
Y1073443D01*
X866015D02*
X866323Y1072772D01*
X866938Y1072324*
X866938D02*
X867553D01*
X867553D02*
X868168Y1072548D01*
X868168D02*
X868476Y1072772D01*
X868784Y1073219*
X868784D02*
X869399Y1074561D01*
X869399D02*
X869706Y1075009D01*
X869706D02*
X870014Y1075232D01*
X870014D02*
X870629Y1075456D01*
X870629D02*
X871552D01*
X871552D02*
X872167Y1075009D01*
X872475Y1074338*
Y1073443*
X872167Y1072772*
X871552Y1072324*
X870014Y1077469D02*
Y1080154D01*
X869399*
X868784Y1079930*
X868476Y1079706*
X868476D02*
X868168Y1079259D01*
X868168D02*
Y1078588D01*
X868168D02*
X868476Y1078140D01*
X868476D02*
X869091Y1077693D01*
X869091D02*
X870014Y1077469D01*
X870014D02*
X870629D01*
X870629D02*
X871552Y1077693D01*
X872167Y1078140*
X872167D02*
X872475Y1078588D01*
Y1079259*
X872167Y1079706*
X872167D02*
X871552Y1080154D01*
X868168Y1082167D02*
X872475D01*
X870014D02*
X869091Y1082391D01*
X869091D02*
X868476Y1082838D01*
X868168Y1083285*
X868168D02*
Y1083956D01*
Y1085970D02*
X872475Y1087312D01*
X868168Y1088654D02*
X872475Y1087312D01*
X866015Y1090667D02*
X866323Y1090891D01*
X866015Y1091115*
X866015D02*
X865708Y1090891D01*
X866015Y1090667*
X868168Y1090891D02*
X872475D01*
X869091Y1095812D02*
X868476Y1095365D01*
X868168Y1094917*
X868168D02*
Y1094246D01*
X868168D02*
X868476Y1093799D01*
X869091Y1093352*
X869091D02*
X870014Y1093128D01*
X870629*
X870629D02*
X871552Y1093352D01*
X872167Y1093799*
X872475Y1094246*
X872475D02*
Y1094917D01*
X872475D02*
X872167Y1095365D01*
X871552Y1095812*
X870014Y1097825D02*
Y1100510D01*
X869399*
X868784Y1100286*
X868784D02*
X868476Y1100062D01*
X868476D02*
X868168Y1099615D01*
X868168D02*
Y1098944D01*
X868168D02*
X868476Y1098496D01*
X868476D02*
X869091Y1098049D01*
X869091D02*
X870014Y1097825D01*
X870014D02*
X870629D01*
X870629D02*
X871552Y1098049D01*
X871552D02*
X872167Y1098496D01*
X872167D02*
X872475Y1098944D01*
Y1099615*
X872167Y1100062*
X872167D02*
X871552Y1100510D01*
X868168Y1102747D02*
X868476Y1102523D01*
X868784Y1102747*
X868476Y1102970*
X868476D02*
X868168Y1102747D01*
X871859D02*
X872167Y1102523D01*
X872475Y1102747*
X872167Y1102970*
X872167D02*
X871859Y1102747D01*
X866015Y1119824D02*
X872475D01*
X866015D02*
Y1121838D01*
X866015D02*
X866323Y1122509D01*
X866631Y1122732*
X866631D02*
X867246Y1122956D01*
X867246D02*
X867861D01*
X867861D02*
X868476Y1122732D01*
X868476D02*
X868784Y1122509D01*
X869091Y1121838*
X869091D02*
Y1119824D01*
Y1121390D02*
X872475Y1122956D01*
X870014Y1124969D02*
Y1127654D01*
X869399*
X868784Y1127430*
X868476Y1127206*
X868476D02*
X868168Y1126759D01*
X868168D02*
Y1126088D01*
X868168D02*
X868476Y1125640D01*
X868476D02*
X869091Y1125193D01*
X869091D02*
X870014Y1124969D01*
X870014D02*
X870629D01*
X870629D02*
X871552Y1125193D01*
X872167Y1125640*
X872167D02*
X872475Y1126088D01*
Y1126759*
X872167Y1127206*
X872167D02*
X871552Y1127654D01*
X869091Y1132351D02*
X868476Y1131904D01*
X868168Y1131456*
X868168D02*
Y1130785D01*
X868168D02*
X868476Y1130338D01*
X869091Y1129891*
X869091D02*
X870014Y1129667D01*
X870629*
X870629D02*
X871552Y1129891D01*
X872167Y1130338*
X872475Y1130785*
X872475D02*
Y1131456D01*
X872475D02*
X872167Y1131904D01*
X871552Y1132351*
X866015Y1134364D02*
X872475D01*
X869399D02*
X868476Y1135035D01*
X868476D02*
X868168Y1135483D01*
X868168D02*
Y1136154D01*
X868168D02*
X868476Y1136601D01*
X868476D02*
X869399Y1136825D01*
X869399D02*
X872475D01*
X870014Y1138838D02*
Y1141523D01*
X869399*
X868784Y1141299*
X868476Y1141075*
X868476D02*
X868168Y1140628D01*
X868168D02*
Y1139957D01*
X868168D02*
X868476Y1139509D01*
X868476D02*
X869091Y1139062D01*
X869091D02*
X870014Y1138838D01*
X870014D02*
X870629D01*
X870629D02*
X871552Y1139062D01*
X872167Y1139509*
X872167D02*
X872475Y1139957D01*
Y1140628*
X872167Y1141075*
X872167D02*
X871552Y1141523D01*
X868168Y1143536D02*
X872475D01*
X870014D02*
X869091Y1143760D01*
X869091D02*
X868476Y1144207D01*
X868168Y1144654*
X868168D02*
Y1145325D01*
X869091Y1150023D02*
X868476Y1149576D01*
X868168Y1149128*
X868168D02*
Y1148457D01*
X868168D02*
X868476Y1148010D01*
X869091Y1147562*
X869091D02*
X870014Y1147339D01*
X870629*
X870629D02*
X871552Y1147562D01*
X871552D02*
X872167Y1148010D01*
X872475Y1148457*
X872475D02*
Y1149128D01*
X872475D02*
X872167Y1149576D01*
X871552Y1150023*
X866015Y1152036D02*
X872475D01*
X869399D02*
X868476Y1152707D01*
X868476D02*
X868168Y1153155D01*
X868168D02*
Y1153826D01*
X868168D02*
X868476Y1154273D01*
X868476D02*
X869399Y1154497D01*
X872475*
X870014Y1156510D02*
Y1159194D01*
X870014D02*
X869399D01*
X869399D02*
X868784Y1158971D01*
X868476Y1158747*
X868168Y1158300*
X868168D02*
Y1157629D01*
X868168D02*
X868476Y1157181D01*
X868476D02*
X869091Y1156734D01*
X869091D02*
X870014Y1156510D01*
X870014D02*
X870629D01*
X870629D02*
X871552Y1156734D01*
X872167Y1157181*
X872167D02*
X872475Y1157629D01*
Y1158300*
X872167Y1158747*
X871552Y1159194*
X870014Y1165234D02*
Y1167918D01*
X870014D02*
X869399D01*
X869399D02*
X868784Y1167695D01*
X868476Y1167471*
X868476D02*
X868168Y1167024D01*
X868168D02*
Y1166353D01*
X868168D02*
X868476Y1165905D01*
X868476D02*
X869091Y1165458D01*
X869091D02*
X870014Y1165234D01*
X870014D02*
X870629D01*
X870629D02*
X871552Y1165458D01*
X872167Y1165905*
X872167D02*
X872475Y1166353D01*
Y1167024*
X872167Y1167471*
X872167D02*
X871552Y1167918D01*
X866015Y1170603D02*
X871244D01*
X871244D02*
X872167Y1170826D01*
X872167D02*
X872475Y1171274D01*
Y1171721*
X868168Y1169932D02*
Y1171498D01*
X866015Y1177761D02*
X872475D01*
X866015D02*
Y1179327D01*
X866015D02*
X866323Y1179998D01*
X866938Y1180445*
X866938D02*
X867553Y1180669D01*
X867553D02*
X868476Y1180893D01*
X870014*
X870937Y1180669*
X871552Y1180445*
X871552D02*
X872167Y1179998D01*
X872475Y1179327*
Y1177761*
X870014Y1182906D02*
Y1185590D01*
X870014D02*
X869399D01*
X869399D02*
X868784Y1185367D01*
X868476Y1185143*
X868168Y1184695*
X868168D02*
Y1184024D01*
X868168D02*
X868476Y1183577D01*
X869091Y1183130*
X869091D02*
X870014Y1182906D01*
X870629*
X870629D02*
X871552Y1183130D01*
X872167Y1183577*
X872475Y1184024*
X872475D02*
Y1184695D01*
X872475D02*
X872167Y1185143D01*
X871552Y1185590*
X867553Y1183353D02*
X866631Y1185143D01*
X868168Y1187380D02*
X872475Y1188722D01*
X868168Y1190064D02*
X872475Y1188722D01*
X870014Y1192077D02*
Y1194762D01*
X869399*
X868784Y1194538*
X868476Y1194314*
X868476D02*
X868168Y1193867D01*
X868168D02*
Y1193196D01*
X868168D02*
X868476Y1192748D01*
X868476D02*
X869091Y1192301D01*
X869091D02*
X870014Y1192077D01*
X870014D02*
X870629D01*
X870629D02*
X871552Y1192301D01*
X871552D02*
X872167Y1192748D01*
X872167D02*
X872475Y1193196D01*
Y1193867*
X872167Y1194314*
X872167D02*
X871552Y1194762D01*
X866015Y1196775D02*
X872475D01*
X868168Y1199907D02*
X868476Y1199459D01*
X868476D02*
X869091Y1199012D01*
X869091D02*
X870014Y1198788D01*
X870014D02*
X870629D01*
X870629D02*
X871552Y1199012D01*
X872167Y1199459*
X872167D02*
X872475Y1199907D01*
Y1200578*
X872167Y1201025*
X872167D02*
X871552Y1201472D01*
X871552D02*
X870629Y1201696D01*
X870629D02*
X870014D01*
X870014D02*
X869091Y1201472D01*
X869091D02*
X868476Y1201025D01*
X868476D02*
X868168Y1200578D01*
X868168D02*
Y1199907D01*
Y1203709D02*
X874628D01*
X869091D02*
X868476Y1204157D01*
X868168Y1204604*
X868168D02*
Y1205275D01*
X868168D02*
X868476Y1205723D01*
X869091Y1206170*
X869091D02*
X870014Y1206394D01*
X870629*
X870629D02*
X871552Y1206170D01*
X871552D02*
X872167Y1205723D01*
X872475Y1205275*
X872475D02*
Y1204604D01*
X872475D02*
X872167Y1204157D01*
X871552Y1203709*
X868168Y1208407D02*
X874628D01*
X869091D02*
X868476Y1208854D01*
X868476D02*
X868168Y1209302D01*
X868168D02*
Y1209973D01*
X868168D02*
X868476Y1210420D01*
X868476D02*
X869091Y1210868D01*
X869091D02*
X870014Y1211091D01*
X870014D02*
X870629D01*
X870629D02*
X871552Y1210868D01*
X872167Y1210420*
X872167D02*
X872475Y1209973D01*
Y1209302*
X872167Y1208854*
X872167D02*
X871552Y1208407D01*
X870014Y1213105D02*
Y1215789D01*
X869399*
X868784Y1215565*
X868784D02*
X868476Y1215341D01*
X868476D02*
X868168Y1214894D01*
X868168D02*
Y1214223D01*
X868168D02*
X868476Y1213776D01*
X869091Y1213328*
X869091D02*
X870014Y1213105D01*
X870629*
X870629D02*
X871552Y1213328D01*
X871552D02*
X872167Y1213776D01*
X872475Y1214223*
X872475D02*
Y1214894D01*
X872475D02*
X872167Y1215341D01*
X872167D02*
X871552Y1215789D01*
X868168Y1217802D02*
X872475D01*
X869399D02*
X868476Y1218473D01*
X868476D02*
X868168Y1218921D01*
X868168D02*
Y1219592D01*
X868168D02*
X868476Y1220039D01*
X868476D02*
X869399Y1220263D01*
X872475*
X869399D02*
X868476Y1220934D01*
X868168Y1221381*
X868168D02*
Y1222052D01*
X868168D02*
X868476Y1222500D01*
X869399Y1222723*
X869399D02*
X872475D01*
X870014Y1224737D02*
Y1227421D01*
X869399*
X868784Y1227197*
X868784D02*
X868476Y1226974D01*
X868168Y1226526*
X868168D02*
Y1225855D01*
X868168D02*
X868476Y1225408D01*
X869091Y1224960*
X869091D02*
X870014Y1224737D01*
X870629*
X870629D02*
X871552Y1224960D01*
X871552D02*
X872167Y1225408D01*
X872475Y1225855*
X872475D02*
Y1226526D01*
X872475D02*
X872167Y1226974D01*
X871552Y1227421*
X868168Y1229434D02*
X872475D01*
X869399D02*
X868476Y1230105D01*
X868476D02*
X868168Y1230553D01*
X868168D02*
Y1231224D01*
X868168D02*
X868476Y1231671D01*
X868476D02*
X869399Y1231895D01*
X872475*
X866015Y1234579D02*
X871244D01*
X871244D02*
X872167Y1234803D01*
X872475Y1235250*
X872475D02*
Y1235698D01*
X868168Y1233908D02*
Y1235474D01*
X866015Y1241737D02*
X872475D01*
X866015D02*
Y1243303D01*
X866015D02*
X866323Y1243974D01*
X866323D02*
X866938Y1244422D01*
X866938D02*
X867553Y1244645D01*
X867553D02*
X868476Y1244869D01*
X868476D02*
X870014D01*
X870014D02*
X870937Y1244645D01*
X870937D02*
X871552Y1244422D01*
X872167Y1243974*
X872167D02*
X872475Y1243303D01*
X872475D02*
Y1241737D01*
X870014Y1246882D02*
Y1249567D01*
X869399*
X868784Y1249343*
X868476Y1249119*
X868476D02*
X868168Y1248672D01*
X868168D02*
Y1248001D01*
X868168D02*
X868476Y1247553D01*
X868476D02*
X869091Y1247106D01*
X869091D02*
X870014Y1246882D01*
X870014D02*
X870629D01*
X870629D02*
X871552Y1247106D01*
X872167Y1247553*
X872167D02*
X872475Y1248001D01*
Y1248672*
X872167Y1249119*
X872167D02*
X871552Y1249567D01*
X867553Y1247330D02*
X866631Y1249119D01*
X866015Y1252027D02*
X871244D01*
X871244D02*
X872167Y1252251D01*
X872475Y1252698*
X872475D02*
Y1253146D01*
X868168Y1251356D02*
Y1252922D01*
X870014Y1255159D02*
Y1257843D01*
X870014D02*
X869399D01*
X869399D02*
X868784Y1257620D01*
X868476Y1257396*
X868168Y1256948*
X868168D02*
Y1256277D01*
X868168D02*
X868476Y1255830D01*
X868476D02*
X869091Y1255383D01*
X869091D02*
X870014Y1255159D01*
X870629*
X870629D02*
X871552Y1255383D01*
X872167Y1255830*
X872167D02*
X872475Y1256277D01*
X872475D02*
Y1256948D01*
X872475D02*
X872167Y1257396D01*
X871552Y1257843*
X869091Y1262541D02*
X868476Y1262093D01*
X868476D02*
X868168Y1261646D01*
X868168D02*
Y1260975D01*
X868168D02*
X868476Y1260528D01*
X869091Y1260080*
X869091D02*
X870014Y1259857D01*
X870629*
X870629D02*
X871552Y1260080D01*
X871552D02*
X872167Y1260528D01*
X872475Y1260975*
Y1261646*
X872475D02*
X872167Y1262093D01*
X872167D02*
X871552Y1262541D01*
X866015Y1265225D02*
X871244D01*
X871244D02*
X872167Y1265449D01*
X872475Y1265896*
X872475D02*
Y1266344D01*
X868168Y1264554D02*
Y1266120D01*
X870014Y1268357D02*
Y1271041D01*
X870014D02*
X869399D01*
X869399D02*
X868784Y1270818D01*
X868476Y1270594*
X868168Y1270146*
X868168D02*
Y1269475D01*
X868168D02*
X868476Y1269028D01*
X869091Y1268581*
X869091D02*
X870014Y1268357D01*
X870629*
X870629D02*
X871552Y1268581D01*
X872167Y1269028*
X872475Y1269475*
X872475D02*
Y1270146D01*
X872475D02*
X872167Y1270594D01*
X871552Y1271041*
X868168Y1273054D02*
X871244D01*
X871244D02*
X872167Y1273278D01*
X872167D02*
X872475Y1273726D01*
Y1274397*
X872167Y1274844*
X871244Y1275515*
X868168D02*
X872475D01*
X868168Y1277528D02*
X872475D01*
X870014D02*
X869091Y1277752D01*
X869091D02*
X868476Y1278199D01*
X868476D02*
X868168Y1278647D01*
X868168D02*
Y1279318D01*
X869091Y1283792D02*
X868476Y1283568D01*
X868476D02*
X868168Y1282897D01*
X868168D02*
Y1282226D01*
X868168D02*
X868476Y1281555D01*
X869091Y1281331*
X869091D02*
X869706Y1281555D01*
X869706D02*
X870014Y1282002D01*
X870014D02*
X870321Y1283121D01*
X870321D02*
X870629Y1283568D01*
X870629D02*
X871244Y1283792D01*
X871244D02*
X871552D01*
X872167Y1283568*
X872167D02*
X872475Y1282897D01*
Y1282226*
X872167Y1281555*
X871552Y1281331*
X902224Y989203D02*
X909975D01*
X902224Y987324D02*
Y991082D01*
Y993498D02*
X909975D01*
X902224D02*
X909975Y997256D01*
X902224D02*
X909975D01*
X902224Y1001551D02*
X909975D01*
X902224Y999672D02*
Y1003430D01*
X905791Y1024824D02*
X905545Y1025182D01*
X905545D02*
X904807Y1025719D01*
X904807D02*
X909975D01*
X904807Y1028403D02*
X905053Y1027867D01*
X905053D02*
X905791Y1027509D01*
X905791D02*
X907022Y1027330D01*
X907760*
X908990Y1027509*
X908990D02*
X909728Y1027867D01*
X909728D02*
X909975Y1028403D01*
X909975D02*
Y1028761D01*
X909975D02*
X909728Y1029298D01*
X909728D02*
X908990Y1029656D01*
X908990D02*
X907760Y1029835D01*
X907760D02*
X907022D01*
X907022D02*
X905791Y1029656D01*
X905791D02*
X905053Y1029298D01*
X905053D02*
X904807Y1028761D01*
X904807D02*
Y1028403D01*
X903823Y1034667D02*
X911697Y1031446D01*
X904807Y1037351D02*
X905053Y1036814D01*
X905053D02*
X905791Y1036456D01*
X905791D02*
X907022Y1036277D01*
X907022D02*
X907760D01*
X907760D02*
X908990Y1036456D01*
X908990D02*
X909728Y1036814D01*
X909728D02*
X909975Y1037351D01*
X909975D02*
Y1037709D01*
X909975D02*
X909728Y1038246D01*
X909728D02*
X908990Y1038604D01*
X908990D02*
X907760Y1038783D01*
X907022*
X905791Y1038604*
X905791D02*
X905053Y1038246D01*
X905053D02*
X904807Y1037709D01*
X904807D02*
Y1037351D01*
X905791Y1040393D02*
X905545Y1040751D01*
X905545D02*
X904807Y1041288D01*
X904807D02*
X909975D01*
X903823Y1046120D02*
X911697Y1042899D01*
X906037Y1047909D02*
X905791D01*
X905791D02*
X905299Y1048088D01*
X905299D02*
X905053Y1048267D01*
X905053D02*
X904807Y1048625D01*
X904807D02*
Y1049341D01*
X904807D02*
X905053Y1049699D01*
X905053D02*
X905299Y1049878D01*
X905299D02*
X905791Y1050057D01*
X905791D02*
X906284D01*
X906776Y1049878*
X907514Y1049520*
X907514D02*
X909975Y1047731D01*
Y1050236*
X904807Y1052920D02*
X905053Y1052383D01*
X905053D02*
X905791Y1052025D01*
X905791D02*
X907022Y1051846D01*
X907022D02*
X907760D01*
X907760D02*
X908990Y1052025D01*
X908990D02*
X909728Y1052383D01*
X909728D02*
X909975Y1052920D01*
X909975D02*
Y1053278D01*
X909975D02*
X909728Y1053815D01*
X909728D02*
X908990Y1054173D01*
X908990D02*
X907760Y1054352D01*
X907022*
X905791Y1054173*
X905791D02*
X905053Y1053815D01*
X905053D02*
X904807Y1053278D01*
X904807D02*
Y1052920D01*
Y1057036D02*
X905053Y1056499D01*
X905053D02*
X905791Y1056141D01*
X905791D02*
X907022Y1055962D01*
X907022D02*
X907760D01*
X907760D02*
X908990Y1056141D01*
X908990D02*
X909728Y1056499D01*
X909728D02*
X909975Y1057036D01*
X909975D02*
Y1057394D01*
X909975D02*
X909728Y1057931D01*
X909728D02*
X908990Y1058289D01*
X908990D02*
X907760Y1058468D01*
X907022*
X905791Y1058289*
X905791D02*
X905053Y1057931D01*
X905053D02*
X904807Y1057394D01*
X904807D02*
Y1057036D01*
X906037Y1060257D02*
X905791D01*
X905791D02*
X905299Y1060436D01*
X905299D02*
X905053Y1060615D01*
X905053D02*
X904807Y1060973D01*
X904807D02*
Y1061689D01*
X904807D02*
X905053Y1062047D01*
X905053D02*
X905299Y1062226D01*
X905299D02*
X905791Y1062405D01*
X905791D02*
X906284D01*
X906776Y1062226*
X907514Y1061868*
X909975Y1060078*
X909975D02*
Y1062584D01*
X967246Y1107324D02*
X966938Y1107772D01*
X966938D02*
X966015Y1108443D01*
X966015D02*
X972475D01*
X967553Y1272548D02*
X967246D01*
X966631Y1272772*
X966323Y1272995*
X966323D02*
X966015Y1273443D01*
X966015D02*
Y1274338D01*
X966015D02*
X966323Y1274785D01*
X966631Y1275009*
X967246Y1275232*
X967246D02*
X967861D01*
X967861D02*
X968476Y1275009D01*
X969399Y1274561*
X969399D02*
X972475Y1272324D01*
X972475D02*
Y1275456D01*
X966015Y1305272D02*
Y1307732D01*
X966015D02*
X968476Y1306390D01*
X968476D02*
Y1307061D01*
X968476D02*
X968784Y1307509D01*
X969091Y1307732*
X969091D02*
X970014Y1307956D01*
X970014D02*
X970629D01*
X970629D02*
X971552Y1307732D01*
X971552D02*
X972167Y1307285D01*
X972475Y1306614*
Y1305943*
X972167Y1305272*
X971859Y1305048*
X971859D02*
X971244Y1304824D01*
X937514Y1180791D02*
X937022Y1181506D01*
X937022D02*
X935545Y1182580D01*
X935545D02*
X945880D01*
X935545Y1189380D02*
X942435Y1185801D01*
X942435D02*
Y1191170D01*
X935545Y1189380D02*
X945880D01*
X937022Y1198686D02*
X936037Y1198328D01*
X936037D02*
X935545Y1197255D01*
X935545D02*
Y1196539D01*
X935545D02*
X936037Y1195465D01*
X936037D02*
X937514Y1194749D01*
X937514D02*
X939975Y1194391D01*
X939975D02*
X942435D01*
X942435D02*
X944404Y1194749D01*
X944404D02*
X945388Y1195465D01*
X945880Y1196539*
X945880D02*
Y1196897D01*
X945880D02*
X945388Y1197970D01*
X945388D02*
X944404Y1198686D01*
X944404D02*
X942927Y1199044D01*
X942927D02*
X942435D01*
X942435D02*
X940959Y1198686D01*
X940959D02*
X939975Y1197970D01*
X939975D02*
X939482Y1196897D01*
X939482D02*
Y1196539D01*
X939482D02*
X939975Y1195465D01*
X940959Y1194749*
X940959D02*
X942435Y1194391D01*
X941451Y1202265D02*
Y1208708D01*
X935545Y1211929D02*
X945880D01*
X941451Y1215150D02*
Y1221592D01*
X935545Y1226961D02*
X936037Y1225887D01*
X936037D02*
X937514Y1225171D01*
X937514D02*
X939975Y1224814D01*
X941451*
X943912Y1225171*
X943912D02*
X945388Y1225887D01*
X945388D02*
X945880Y1226961D01*
X945880D02*
Y1227677D01*
X945880D02*
X945388Y1228751D01*
X943912Y1229466*
X943912D02*
X941451Y1229824D01*
X941451D02*
X939975D01*
X939975D02*
X937514Y1229466D01*
X937514D02*
X936037Y1228751D01*
X936037D02*
X935545Y1227677D01*
X935545D02*
Y1226961D01*
Y1233761D02*
Y1237698D01*
X935545D02*
X939482Y1235551D01*
X939482D02*
Y1236625D01*
X939482D02*
X939975Y1237340D01*
X939975D02*
X940467Y1237698D01*
X940467D02*
X941943Y1238056D01*
X941943D02*
X942927D01*
X942927D02*
X944404Y1237698D01*
X944404D02*
X945388Y1236982D01*
X945388D02*
X945880Y1235909D01*
X945880D02*
Y1234835D01*
X945880D02*
X945388Y1233761D01*
X945388D02*
X944896Y1233403D01*
X944896D02*
X943912Y1233045D01*
X935545Y1243425D02*
X936037Y1242351D01*
X936037D02*
X937514Y1241635D01*
X937514D02*
X939975Y1241277D01*
X939975D02*
X941451D01*
X941451D02*
X943912Y1241635D01*
X943912D02*
X945388Y1242351D01*
X945388D02*
X945880Y1243425D01*
X945880D02*
Y1244141D01*
X945880D02*
X945388Y1245214D01*
X945388D02*
X943912Y1245930D01*
X943912D02*
X941451Y1246288D01*
X941451D02*
X939975D01*
X939975D02*
X937514Y1245930D01*
X937514D02*
X936037Y1245214D01*
X936037D02*
X935545Y1244141D01*
X935545D02*
Y1243425D01*
Y1251657D02*
X936037Y1250583D01*
X936037D02*
X937514Y1249867D01*
X937514D02*
X939975Y1249509D01*
X939975D02*
X941451D01*
X941451D02*
X943912Y1249867D01*
X943912D02*
X945388Y1250583D01*
X945388D02*
X945880Y1251657D01*
X945880D02*
Y1252373D01*
X945880D02*
X945388Y1253446D01*
X945388D02*
X943912Y1254162D01*
X943912D02*
X941451Y1254520D01*
X941451D02*
X939975D01*
X939975D02*
X937514Y1254162D01*
X937514D02*
X936037Y1253446D01*
X936037D02*
X935545Y1252373D01*
X935545D02*
Y1251657D01*
X941451Y1257741D02*
Y1264184D01*
X935545Y1267405D02*
X945880D01*
X935545Y1273131D02*
X945880D01*
X935545Y1270626D02*
Y1275637D01*
X903744Y1191218D02*
X903129Y1190995D01*
X903129D02*
X902514Y1190547D01*
X902514D02*
X902206Y1190100D01*
X902206D02*
Y1189205D01*
X902206D02*
X902514Y1188758D01*
X903129Y1188310*
X903129D02*
X903744Y1188087D01*
X903744D02*
X904667Y1187863D01*
X906205*
X907128Y1188087*
X907743Y1188310*
X907743D02*
X908358Y1188758D01*
X908665Y1189205*
X908665D02*
Y1190100D01*
X908665D02*
X908358Y1190547D01*
X908358D02*
X907743Y1190995D01*
X907128Y1191218*
X904359Y1194350D02*
X904667Y1193903D01*
X905282Y1193455*
X905282D02*
X906205Y1193232D01*
X906820*
X907743Y1193455*
X907743D02*
X908358Y1193903D01*
X908665Y1194350*
X908665D02*
Y1195021D01*
X908665D02*
X908358Y1195469D01*
X907743Y1195916*
X906820Y1196140*
X906205*
X905282Y1195916*
X905282D02*
X904667Y1195469D01*
X904359Y1195021*
X904359D02*
Y1194350D01*
Y1198153D02*
X907435D01*
X907435D02*
X908358Y1198377D01*
X908665Y1198824*
X908665D02*
Y1199495D01*
X908665D02*
X908358Y1199942D01*
X908358D02*
X907435Y1200613D01*
X904359D02*
X908665D01*
X905282Y1205311D02*
X904667Y1204864D01*
X904359Y1204416*
X904359D02*
Y1203745D01*
X904359D02*
X904667Y1203298D01*
X905282Y1202850*
X905282D02*
X906205Y1202627D01*
X906820*
X907743Y1202850*
X907743D02*
X908358Y1203298D01*
X908665Y1203745*
X908665D02*
Y1204416D01*
X908665D02*
X908358Y1204864D01*
X907743Y1205311*
X902206Y1207324D02*
X908665D01*
X905590D02*
X904667Y1207995D01*
X904667D02*
X904359Y1208443D01*
X904359D02*
Y1209114D01*
X904359D02*
X904667Y1209561D01*
X904667D02*
X905590Y1209785D01*
X908665*
X906205Y1211798D02*
Y1214483D01*
X905590*
X904975Y1214259*
X904667Y1214035*
X904667D02*
X904359Y1213588D01*
X904359D02*
Y1212917D01*
X904359D02*
X904667Y1212469D01*
X904667D02*
X905282Y1212022D01*
X905282D02*
X906205Y1211798D01*
X906205D02*
X906820D01*
X906820D02*
X907743Y1212022D01*
X908358Y1212469*
X908358D02*
X908665Y1212917D01*
X908665D02*
Y1213588D01*
X908665D02*
X908358Y1214035D01*
X908358D02*
X907743Y1214483D01*
X903744Y1220746D02*
X903437D01*
X902821Y1220970*
X902821D02*
X902514Y1221193D01*
X902514D02*
X902206Y1221641D01*
X902206D02*
Y1222535D01*
X902206D02*
X902514Y1222983D01*
X902821Y1223207*
X902821D02*
X903437Y1223430D01*
X903437D02*
X904052D01*
X904052D02*
X904667Y1223207D01*
X905590Y1222759*
X905590D02*
X908665Y1220522D01*
X908665D02*
Y1223654D01*
X535053Y1033180D02*
X534438Y1032956D01*
X534438D02*
X533823Y1032509D01*
X533515Y1032061*
X533515D02*
Y1031166D01*
X533515D02*
X533823Y1030719D01*
X533823D02*
X534438Y1030272D01*
X534438D02*
X535053Y1030048D01*
X535053D02*
X535976Y1029824D01*
X535976D02*
X537514D01*
X537514D02*
X538437Y1030048D01*
X539052Y1030272*
X539667Y1030719*
X539667D02*
X539975Y1031166D01*
X539975D02*
Y1032061D01*
X539975D02*
X539667Y1032509D01*
X539052Y1032956*
X539052D02*
X538437Y1033180D01*
X535668Y1035193D02*
X538744D01*
X538744D02*
X539667Y1035417D01*
X539975Y1035864*
X539975D02*
Y1036535D01*
X539975D02*
X539667Y1036982D01*
X539667D02*
X538744Y1037654D01*
X535668D02*
X539975D01*
X533515Y1039667D02*
X533823Y1039891D01*
X533515Y1040114*
X533515D02*
X533208Y1039891D01*
X533515Y1039667*
X535668Y1039891D02*
X539975D01*
X535668Y1042127D02*
X539975Y1043470D01*
X535668Y1044812D02*
X539975Y1043470D01*
X535668Y1046825D02*
X539975D01*
X537514D02*
X536591Y1047049D01*
X536591D02*
X535976Y1047496D01*
X535976D02*
X535668Y1047943D01*
X535668D02*
Y1048615D01*
X537514Y1050628D02*
Y1053312D01*
X537514D02*
X536899D01*
X536899D02*
X536284Y1053088D01*
X536284D02*
X535976Y1052865D01*
X535668Y1052417*
X535668D02*
Y1051746D01*
X535668D02*
X535976Y1051299D01*
X536591Y1050852*
X536591D02*
X537514Y1050628D01*
X538129*
X538129D02*
X539052Y1050852D01*
X539667Y1051299*
X539975Y1051746*
X539975D02*
Y1052417D01*
X539975D02*
X539667Y1052865D01*
X539052Y1053312*
X533515Y1059799D02*
Y1062260D01*
X533515D02*
X535976Y1060918D01*
Y1061589*
X536284Y1062036*
X536284D02*
X536591Y1062260D01*
X536591D02*
X537514Y1062484D01*
X538129*
X538129D02*
X539052Y1062260D01*
X539667Y1061812*
X539667D02*
X539975Y1061141D01*
X539975D02*
Y1060470D01*
X539975D02*
X539667Y1059799D01*
X539667D02*
X539359Y1059576D01*
X539359D02*
X538744Y1059352D01*
X536591Y1071208D02*
X535976Y1070760D01*
X535976D02*
X535668Y1070313D01*
X535668D02*
Y1069642D01*
X535668D02*
X535976Y1069194D01*
X535976D02*
X536591Y1068747D01*
X536591D02*
X537514Y1068523D01*
X537514D02*
X538129D01*
X538129D02*
X539052Y1068747D01*
X539667Y1069194*
X539667D02*
X539975Y1069642D01*
Y1070313*
X539667Y1070760*
X539667D02*
X539052Y1071208D01*
X535668Y1074339D02*
X535976Y1073892D01*
X536591Y1073445*
X536591D02*
X537514Y1073221D01*
X538129*
X538129D02*
X539052Y1073445D01*
X539667Y1073892*
X539975Y1074339*
X539975D02*
Y1075010D01*
X539975D02*
X539667Y1075458D01*
X539052Y1075905*
X539052D02*
X538129Y1076129D01*
X538129D02*
X537514D01*
X536591Y1075905*
X536591D02*
X535976Y1075458D01*
X535668Y1075010*
X535668D02*
Y1074339D01*
Y1078142D02*
X538744D01*
X538744D02*
X539667Y1078366D01*
X539975Y1078813*
X539975D02*
Y1079484D01*
X539975D02*
X539667Y1079932D01*
X538744Y1080603*
X535668D02*
X539975D01*
X536591Y1085300D02*
X535976Y1084853D01*
X535668Y1084406*
X535668D02*
Y1083734D01*
X535668D02*
X535976Y1083287D01*
X535976D02*
X536591Y1082840D01*
X536591D02*
X537514Y1082616D01*
X537514D02*
X538129D01*
X538129D02*
X539052Y1082840D01*
X539667Y1083287*
X539667D02*
X539975Y1083734D01*
X539975D02*
Y1084406D01*
X539667Y1084853*
X539052Y1085300*
X533515Y1087314D02*
X539975D01*
X536899D02*
X535976Y1087985D01*
X535668Y1088432*
X535668D02*
Y1089103D01*
X535668D02*
X535976Y1089551D01*
X536899Y1089774*
X536899D02*
X539975D01*
X537514Y1091787D02*
Y1094472D01*
X536899*
X536284Y1094248*
X536284D02*
X535976Y1094024D01*
X535976D02*
X535668Y1093577D01*
X535668D02*
Y1092906D01*
X535668D02*
X535976Y1092459D01*
X536591Y1092011*
X536591D02*
X537514Y1091787D01*
X537514D02*
X538129D01*
X538129D02*
X539052Y1092011D01*
X539052D02*
X539667Y1092459D01*
X539975Y1092906*
Y1093577*
X539667Y1094024*
X539667D02*
X539052Y1094472D01*
X536591Y1098946D02*
X535976Y1098722D01*
X535668Y1098051*
X535668D02*
Y1097380D01*
X535668D02*
X535976Y1096709D01*
X536591Y1096485*
X536591D02*
X537206Y1096709D01*
X537206D02*
X537514Y1097156D01*
X537514D02*
X537821Y1098275D01*
X537821D02*
X538129Y1098722D01*
X538129D02*
X538744Y1098946D01*
X538744D02*
X539052D01*
X539667Y1098722*
X539975Y1098051*
Y1097380*
X539667Y1096709*
X539052Y1096485*
X543515Y1031390D02*
X549975D01*
X543515Y1029824D02*
Y1032956D01*
X545668Y1034969D02*
X549975D01*
X547514D02*
X546591Y1035193D01*
X546591D02*
X545976Y1035640D01*
X545976D02*
X545668Y1036088D01*
X545668D02*
Y1036759D01*
Y1039891D02*
X545976Y1039443D01*
X545976D02*
X546591Y1038996D01*
X546591D02*
X547514Y1038772D01*
X547514D02*
X548129D01*
X548129D02*
X549052Y1038996D01*
X549667Y1039443*
X549667D02*
X549975Y1039891D01*
Y1040562*
X549667Y1041009*
X549052Y1041456*
X549052D02*
X548129Y1041680D01*
X548129D02*
X547514D01*
X547514D02*
X546591Y1041456D01*
X546591D02*
X545976Y1041009D01*
X545668Y1040562*
X545668D02*
Y1039891D01*
Y1043693D02*
X548744D01*
X548744D02*
X549667Y1043917D01*
X549667D02*
X549975Y1044364D01*
X549975D02*
Y1045035D01*
X549975D02*
X549667Y1045483D01*
X548744Y1046154*
X545668D02*
X549975D01*
X546591Y1050628D02*
X545976Y1050404D01*
X545976D02*
X545668Y1049733D01*
X545668D02*
Y1049062D01*
X545668D02*
X545976Y1048391D01*
X546591Y1048167*
X546591D02*
X547206Y1048391D01*
X547206D02*
X547514Y1048838D01*
X547514D02*
X547821Y1049957D01*
X547821D02*
X548129Y1050404D01*
X548129D02*
X548744Y1050628D01*
X548744D02*
X549052D01*
X549667Y1050404*
X549667D02*
X549975Y1049733D01*
X549975D02*
Y1049062D01*
X549667Y1048391*
X549052Y1048167*
X545668Y1056668D02*
X549975D01*
X546899D02*
X545976Y1057339D01*
X545668Y1057786*
X545668D02*
Y1058457D01*
X545668D02*
X545976Y1058904D01*
X545976D02*
X546899Y1059128D01*
X546899D02*
X549975D01*
X546899D02*
X545976Y1059799D01*
X545976D02*
X545668Y1060247D01*
X545668D02*
Y1060918D01*
X545668D02*
X545976Y1061365D01*
X545976D02*
X546899Y1061589D01*
X549975*
X547514Y1063602D02*
Y1066286D01*
X547514D02*
X546899D01*
X546899D02*
X546284Y1066063D01*
X545976Y1065839*
X545668Y1065392*
X545668D02*
Y1064721D01*
X545668D02*
X545976Y1064273D01*
X545976D02*
X546591Y1063826D01*
X546591D02*
X547514Y1063602D01*
X547514D02*
X548129D01*
X548129D02*
X549052Y1063826D01*
X549667Y1064273*
X549667D02*
X549975Y1064721D01*
Y1065392*
X549667Y1065839*
X549052Y1066286*
X545053Y1064049D02*
X544131Y1065839D01*
X543515Y1068747D02*
X548744D01*
X548744D02*
X549667Y1068971D01*
X549975Y1069418*
X549975D02*
Y1069865D01*
X545668Y1068076D02*
Y1069642D01*
Y1074563D02*
X549975D01*
X546591D02*
X545976Y1074116D01*
X545668Y1073668*
X545668D02*
Y1072997D01*
X545668D02*
X545976Y1072550D01*
X546591Y1072102*
X546591D02*
X547514Y1071879D01*
X548129*
X548129D02*
X549052Y1072102D01*
X549052D02*
X549667Y1072550D01*
X549975Y1072997*
X549975D02*
Y1073668D01*
X549975D02*
X549667Y1074116D01*
X549052Y1074563*
X543515Y1076576D02*
X549975D01*
X543515Y1078590D02*
X549975D01*
X543515Y1080603D02*
X543823Y1080826D01*
X543823D02*
X543515Y1081050D01*
X543515D02*
X543208Y1080826D01*
X543208D02*
X543515Y1080603D01*
X545668Y1080826D02*
X549975D01*
X546591Y1085524D02*
X545976Y1085300D01*
X545976D02*
X545668Y1084629D01*
X545668D02*
Y1083958D01*
X545668D02*
X545976Y1083287D01*
X545976D02*
X546591Y1083063D01*
X546591D02*
X547206Y1083287D01*
X547206D02*
X547514Y1083734D01*
X547514D02*
X547821Y1084853D01*
X547821D02*
X548129Y1085300D01*
X548129D02*
X548744Y1085524D01*
X548744D02*
X549052D01*
X549052D02*
X549667Y1085300D01*
X549667D02*
X549975Y1084629D01*
X549975D02*
Y1083958D01*
X549975D02*
X549667Y1083287D01*
X549667D02*
X549052Y1083063D01*
X547514Y1087537D02*
Y1090222D01*
X546899*
X546284Y1089998*
X545976Y1089774*
X545976D02*
X545668Y1089327D01*
X545668D02*
Y1088656D01*
X545668D02*
X545976Y1088208D01*
X545976D02*
X546591Y1087761D01*
X546591D02*
X547514Y1087537D01*
X547514D02*
X548129D01*
X548129D02*
X549052Y1087761D01*
X549667Y1088208*
X549667D02*
X549975Y1088656D01*
Y1089327*
X549667Y1089774*
X549667D02*
X549052Y1090222D01*
X545053Y1087985D02*
X544131Y1089774D01*
X546591Y1094472D02*
X545976Y1094248D01*
X545976D02*
X545668Y1093577D01*
X545668D02*
Y1092906D01*
X545668D02*
X545976Y1092235D01*
X546591Y1092011*
X546591D02*
X547206Y1092235D01*
X547206D02*
X547514Y1092682D01*
X547514D02*
X547821Y1093801D01*
X547821D02*
X548129Y1094248D01*
X548129D02*
X548744Y1094472D01*
X548744D02*
X549052D01*
X549667Y1094248*
X549667D02*
X549975Y1093577D01*
Y1092906*
X549667Y1092235*
X549052Y1092011*
X555053Y1033180D02*
X554438Y1032956D01*
X554438D02*
X553823Y1032509D01*
X553515Y1032061*
X553515D02*
Y1031166D01*
X553515D02*
X553823Y1030719D01*
X553823D02*
X554438Y1030272D01*
X554438D02*
X555053Y1030048D01*
X555053D02*
X555976Y1029824D01*
X555976D02*
X557514D01*
X557514D02*
X558437Y1030048D01*
X559052Y1030272*
X559667Y1030719*
X559667D02*
X559975Y1031166D01*
X559975D02*
Y1032061D01*
X559975D02*
X559667Y1032509D01*
X559052Y1032956*
X559052D02*
X558437Y1033180D01*
X555668Y1035193D02*
X558744D01*
X558744D02*
X559667Y1035417D01*
X559975Y1035864*
X559975D02*
Y1036535D01*
X559975D02*
X559667Y1036982D01*
X559667D02*
X558744Y1037654D01*
X555668D02*
X559975D01*
X553515Y1039667D02*
X553823Y1039891D01*
X553515Y1040114*
X553515D02*
X553208Y1039891D01*
X553515Y1039667*
X555668Y1039891D02*
X559975D01*
X555668Y1042127D02*
X559975Y1043470D01*
X555668Y1044812D02*
X559975Y1043470D01*
X555668Y1046825D02*
X559975D01*
X557514D02*
X556591Y1047049D01*
X556591D02*
X555976Y1047496D01*
X555976D02*
X555668Y1047943D01*
X555668D02*
Y1048615D01*
X557514Y1050628D02*
Y1053312D01*
X557514D02*
X556899D01*
X556899D02*
X556284Y1053088D01*
X556284D02*
X555976Y1052865D01*
X555668Y1052417*
X555668D02*
Y1051746D01*
X555668D02*
X555976Y1051299D01*
X556591Y1050852*
X556591D02*
X557514Y1050628D01*
X558129*
X558129D02*
X559052Y1050852D01*
X559667Y1051299*
X559975Y1051746*
X559975D02*
Y1052417D01*
X559975D02*
X559667Y1052865D01*
X559052Y1053312*
X557514Y1059352D02*
Y1062036D01*
X557514D02*
X556899D01*
X556899D02*
X556284Y1061812D01*
X556284D02*
X555976Y1061589D01*
X555668Y1061141*
X555668D02*
Y1060470D01*
X555668D02*
X555976Y1060023D01*
X556591Y1059576*
X556591D02*
X557514Y1059352D01*
X558129*
X558129D02*
X559052Y1059576D01*
X559667Y1060023*
X559975Y1060470*
X559975D02*
Y1061141D01*
X559975D02*
X559667Y1061589D01*
X559052Y1062036*
X555053Y1059799D02*
X554131Y1061589D01*
X553515Y1064497D02*
X558744D01*
X558744D02*
X559667Y1064721D01*
X559975Y1065168*
Y1065615*
X555668Y1063826D02*
Y1065392D01*
Y1070313D02*
X559975D01*
X556591D02*
X555976Y1069865D01*
X555976D02*
X555668Y1069418D01*
X555668D02*
Y1068747D01*
X555668D02*
X555976Y1068300D01*
X556591Y1067852*
X556591D02*
X557514Y1067629D01*
X558129*
X558129D02*
X559052Y1067852D01*
X559052D02*
X559667Y1068300D01*
X559975Y1068747*
Y1069418*
X559975D02*
X559667Y1069865D01*
X559667D02*
X559052Y1070313D01*
X555668Y1072326D02*
X559975D01*
X556899D02*
X555976Y1072997D01*
X555976D02*
X555668Y1073445D01*
X555668D02*
Y1074116D01*
X555668D02*
X555976Y1074563D01*
X555976D02*
X556899Y1074787D01*
X559975*
X556899D02*
X555976Y1075458D01*
X555668Y1075905*
X555668D02*
Y1076576D01*
X555668D02*
X555976Y1077024D01*
X556899Y1077247*
X556899D02*
X559975D01*
X557514Y1079261D02*
Y1081945D01*
X556899*
X556284Y1081721*
X556284D02*
X555976Y1081498D01*
X555668Y1081050*
X555668D02*
Y1080379D01*
X555668D02*
X555976Y1079932D01*
X556591Y1079484*
X556591D02*
X557514Y1079261D01*
X558129*
X558129D02*
X559052Y1079484D01*
X559052D02*
X559667Y1079932D01*
X559975Y1080379*
X559975D02*
Y1081050D01*
X559975D02*
X559667Y1081498D01*
X559052Y1081945*
X555053Y1079708D02*
X554131Y1081498D01*
X559667Y1084182D02*
X559975Y1083958D01*
X559975D02*
X559667Y1083734D01*
X559667D02*
X559359Y1083958D01*
X559359D02*
X559667Y1084182D01*
X560282*
X560282D02*
X560897Y1083958D01*
X560897D02*
X561205Y1083734D01*
X557514Y1090222D02*
Y1092906D01*
X556899*
X556284Y1092682*
X556284D02*
X555976Y1092459D01*
X555668Y1092011*
X555668D02*
Y1091340D01*
X555668D02*
X555976Y1090893D01*
X556591Y1090445*
X556591D02*
X557514Y1090222D01*
X558129*
X558129D02*
X559052Y1090445D01*
X559052D02*
X559667Y1090893D01*
X559975Y1091340*
X559975D02*
Y1092011D01*
X559975D02*
X559667Y1092459D01*
X559052Y1092906*
X555053Y1090669D02*
X554131Y1092459D01*
X555668Y1094695D02*
X562128D01*
X556591D02*
X555976Y1095143D01*
X555668Y1095590*
X555668D02*
Y1096261D01*
X555668D02*
X555976Y1096709D01*
X556591Y1097156*
X556591D02*
X557514Y1097380D01*
X558129*
X558129D02*
X559052Y1097156D01*
X559052D02*
X559667Y1096709D01*
X559975Y1096261*
X559975D02*
Y1095590D01*
X559975D02*
X559667Y1095143D01*
X559052Y1094695*
X555668Y1102077D02*
X559975D01*
X556591D02*
X555976Y1101630D01*
X555668Y1101183*
X555668D02*
Y1100511D01*
X555668D02*
X555976Y1100064D01*
X555976D02*
X556591Y1099617D01*
X556591D02*
X557514Y1099393D01*
X557514D02*
X558129D01*
X558129D02*
X559052Y1099617D01*
X559667Y1100064*
X559667D02*
X559975Y1100511D01*
X559975D02*
Y1101183D01*
X559667Y1101630*
X559052Y1102077*
X553515Y1104091D02*
X553823Y1104314D01*
X553823D02*
X553515Y1104538D01*
X553515D02*
X553208Y1104314D01*
X553208D02*
X553515Y1104091D01*
X555668Y1104314D02*
X559975D01*
X556591Y1109012D02*
X555976Y1108788D01*
X555976D02*
X555668Y1108117D01*
X555668D02*
Y1107446D01*
X555668D02*
X555976Y1106775D01*
X556591Y1106551*
X556591D02*
X557206Y1106775D01*
X557206D02*
X557514Y1107222D01*
X557514D02*
X557821Y1108341D01*
X557821D02*
X558129Y1108788D01*
X558129D02*
X558744Y1109012D01*
X558744D02*
X559052D01*
X559667Y1108788*
X559667D02*
X559975Y1108117D01*
X559975D02*
Y1107446D01*
X559667Y1106775*
X559052Y1106551*
X556591Y1113486D02*
X555976Y1113262D01*
X555976D02*
X555668Y1112591D01*
X555668D02*
Y1111920D01*
X555668D02*
X555976Y1111249D01*
X556591Y1111025*
X556591D02*
X557206Y1111249D01*
X557206D02*
X557514Y1111696D01*
X557514D02*
X557821Y1112815D01*
X557821D02*
X558129Y1113262D01*
X558129D02*
X558744Y1113486D01*
X558744D02*
X559052D01*
X559667Y1113262*
X559667D02*
X559975Y1112591D01*
Y1111920*
X559667Y1111249*
X559052Y1111025*
X557514Y1115499D02*
Y1118183D01*
X557514D02*
X556899D01*
X556899D02*
X556284Y1117960D01*
X555976Y1117736*
X555668Y1117289*
X555668D02*
Y1116617D01*
X555668D02*
X555976Y1116170D01*
X555976D02*
X556591Y1115723D01*
X556591D02*
X557514Y1115499D01*
X558129*
X558129D02*
X559052Y1115723D01*
X559667Y1116170*
X559667D02*
X559975Y1116617D01*
X559975D02*
Y1117289D01*
X559667Y1117736*
X559052Y1118183*
X555668Y1120197D02*
X558744D01*
X558744D02*
X559667Y1120420D01*
X559667D02*
X559975Y1120868D01*
Y1121539*
X559667Y1121986*
X559667D02*
X558744Y1122657D01*
X555668D02*
X559975D01*
X555668Y1124670D02*
X559975D01*
X557514D02*
X556591Y1124894D01*
X556591D02*
X555976Y1125341D01*
X555976D02*
X555668Y1125789D01*
X555668D02*
Y1126460D01*
X553515Y1132947D02*
Y1135408D01*
X553515D02*
X555976Y1134066D01*
Y1134737*
X556284Y1135184*
X556284D02*
X556591Y1135408D01*
X556591D02*
X557514Y1135631D01*
X557514D02*
X558129D01*
X558129D02*
X559052Y1135408D01*
X559667Y1134960*
X559667D02*
X559975Y1134289D01*
X559975D02*
Y1133618D01*
X559975D02*
X559667Y1132947D01*
X559667D02*
X559359Y1132723D01*
X559359D02*
X558744Y1132500D01*
X553515Y1140553D02*
Y1138316D01*
X553515D02*
X556284Y1138092D01*
X556284D02*
X555976Y1138316D01*
X555668Y1138987*
X555668D02*
Y1139658D01*
X555668D02*
X555976Y1140329D01*
X556591Y1140776*
X556591D02*
X557514Y1141000D01*
X557514D02*
X558129Y1140776D01*
X558129D02*
X559052Y1140553D01*
X559667Y1140105*
X559667D02*
X559975Y1139434D01*
X559975D02*
Y1138763D01*
X559975D02*
X559667Y1138092D01*
X559667D02*
X559359Y1137868D01*
X559359D02*
X558744Y1137645D01*
X555668Y1143013D02*
X558744D01*
X558744D02*
X559667Y1143237D01*
X559975Y1143684*
X559975D02*
Y1144355D01*
X559975D02*
X559667Y1144803D01*
X558744Y1145474*
X555668D02*
X559975D01*
X555668Y1147487D02*
X559975D01*
X556899D02*
X555976Y1148158D01*
X555976D02*
X555668Y1148606D01*
X555668D02*
Y1149277D01*
X555668D02*
X555976Y1149724D01*
X555976D02*
X556899Y1149948D01*
X559975*
X556899D02*
X555976Y1150619D01*
X555668Y1151066*
X555668D02*
Y1151737D01*
X555668D02*
X555976Y1152185D01*
X556899Y1152408*
X556899D02*
X559975D01*
X563515Y1029824D02*
X569975D01*
X563515D02*
Y1032732D01*
X566591Y1029824D02*
Y1031614D01*
X569975Y1029824D02*
Y1032732D01*
X565668Y1034746D02*
X572128D01*
X566591D02*
X565976Y1035193D01*
X565668Y1035640*
X565668D02*
Y1036311D01*
X565668D02*
X565976Y1036759D01*
X566591Y1037206*
X566591D02*
X567514Y1037430D01*
X568129*
X568129D02*
X569052Y1037206D01*
X569052D02*
X569667Y1036759D01*
X569975Y1036311*
X569975D02*
Y1035640D01*
X569975D02*
X569667Y1035193D01*
X569052Y1034746*
X565668Y1040562D02*
X565976Y1040114D01*
X565976D02*
X566591Y1039667D01*
X566591D02*
X567514Y1039443D01*
X567514D02*
X568129D01*
X568129D02*
X569052Y1039667D01*
X569667Y1040114*
X569667D02*
X569975Y1040562D01*
Y1041233*
X569667Y1041680*
X569667D02*
X569052Y1042127D01*
X569052D02*
X568129Y1042351D01*
X568129D02*
X567514D01*
X567514D02*
X566591Y1042127D01*
X566591D02*
X565976Y1041680D01*
X565976D02*
X565668Y1041233D01*
X565668D02*
Y1040562D01*
Y1044364D02*
X569975Y1046825D01*
X565668D02*
X569975Y1044364D01*
X565668Y1049062D02*
X569975Y1050404D01*
X565668Y1051746D02*
X569975Y1050404D01*
X569975D02*
X571205Y1049957D01*
X571820Y1049509*
X571820D02*
X572128Y1049062D01*
Y1048838*
X567514Y1057786D02*
Y1060470D01*
X567514D02*
X566899D01*
X566899D02*
X566284Y1060247D01*
X565976Y1060023*
X565668Y1059576*
X565668D02*
Y1058904D01*
X565668D02*
X565976Y1058457D01*
X565976D02*
X566591Y1058010D01*
X566591D02*
X567514Y1057786D01*
X567514D02*
X568129D01*
X568129D02*
X569052Y1058010D01*
X569667Y1058457*
X569667D02*
X569975Y1058904D01*
X569975D02*
Y1059576D01*
X569667Y1060023*
X569052Y1060470*
X565053Y1058233D02*
X564131Y1060023D01*
X565668Y1062260D02*
X572128D01*
X566591D02*
X565976Y1062707D01*
X565976D02*
X565668Y1063155D01*
X565668D02*
Y1063826D01*
X565668D02*
X565976Y1064273D01*
X565976D02*
X566591Y1064721D01*
X566591D02*
X567514Y1064944D01*
X567514D02*
X568129D01*
X568129D02*
X569052Y1064721D01*
X569667Y1064273*
X569667D02*
X569975Y1063826D01*
Y1063155*
X569667Y1062707*
X569667D02*
X569052Y1062260D01*
X565668Y1069642D02*
X569975D01*
X566591D02*
X565976Y1069194D01*
X565976D02*
X565668Y1068747D01*
X565668D02*
Y1068076D01*
X565668D02*
X565976Y1067629D01*
X566591Y1067181*
X566591D02*
X567514Y1066957D01*
X567514D02*
X568129D01*
X568129D02*
X569052Y1067181D01*
X569052D02*
X569667Y1067629D01*
X569975Y1068076*
Y1068747*
X569667Y1069194*
X569667D02*
X569052Y1069642D01*
X563515Y1071655D02*
X563823Y1071879D01*
X563515Y1072102*
X563515D02*
X563208Y1071879D01*
X563515Y1071655*
X565668Y1071879D02*
X569975D01*
X566591Y1076576D02*
X565976Y1076353D01*
X565668Y1075681*
X565668D02*
Y1075010D01*
X565668D02*
X565976Y1074339D01*
X565976D02*
X566591Y1074116D01*
X566591D02*
X567206Y1074339D01*
X567206D02*
X567514Y1074787D01*
X567821Y1075905*
X567821D02*
X568129Y1076353D01*
X568129D02*
X568744Y1076576D01*
X568744D02*
X569052D01*
X569052D02*
X569667Y1076353D01*
X569975Y1075681*
X569975D02*
Y1075010D01*
X569975D02*
X569667Y1074339D01*
X569667D02*
X569052Y1074116D01*
X566591Y1081050D02*
X565976Y1080826D01*
X565976D02*
X565668Y1080155D01*
X565668D02*
Y1079484D01*
X565668D02*
X565976Y1078813D01*
X565976D02*
X566591Y1078590D01*
X566591D02*
X567206Y1078813D01*
X567206D02*
X567514Y1079261D01*
X567821Y1080379*
X567821D02*
X568129Y1080826D01*
X568129D02*
X568744Y1081050D01*
X568744D02*
X569052D01*
X569052D02*
X569667Y1080826D01*
X569667D02*
X569975Y1080155D01*
X569975D02*
Y1079484D01*
X569975D02*
X569667Y1078813D01*
X569667D02*
X569052Y1078590D01*
X567514Y1083063D02*
Y1085748D01*
X566899*
X566284Y1085524*
X566284D02*
X565976Y1085300D01*
X565976D02*
X565668Y1084853D01*
X565668D02*
Y1084182D01*
X565668D02*
X565976Y1083734D01*
X565976D02*
X566591Y1083287D01*
X566591D02*
X567514Y1083063D01*
X567514D02*
X568129D01*
X568129D02*
X569052Y1083287D01*
X569052D02*
X569667Y1083734D01*
X569667D02*
X569975Y1084182D01*
Y1084853*
X569667Y1085300*
X569667D02*
X569052Y1085748D01*
X565668Y1087761D02*
X568744D01*
X568744D02*
X569667Y1087985D01*
X569975Y1088432*
X569975D02*
Y1089103D01*
X569975D02*
X569667Y1089551D01*
X568744Y1090222*
X565668D02*
X569975D01*
X565668Y1092235D02*
X569975D01*
X567514D02*
X566591Y1092459D01*
X566591D02*
X565976Y1092906D01*
X565668Y1093353*
X565668D02*
Y1094024D01*
X564746Y1100064D02*
X564438Y1100511D01*
X564438D02*
X563515Y1101183D01*
X563515D02*
X569975D01*
X569667Y1103643D02*
X569975Y1103420D01*
X569667Y1103196*
X569359Y1103420*
X569359D02*
X569667Y1103643D01*
X569667D02*
X570282D01*
X570282D02*
X570897Y1103420D01*
X570897D02*
X571205Y1103196D01*
X564438Y1108341D02*
X563823Y1108117D01*
X563823D02*
X563515Y1107446D01*
X563515D02*
Y1106999D01*
X563515D02*
X563823Y1106328D01*
X564746Y1105880*
X564746D02*
X566284Y1105656D01*
X566284D02*
X567821D01*
X567821D02*
X569052Y1105880D01*
X569052D02*
X569667Y1106328D01*
X569975Y1106999*
Y1107222*
X569975D02*
X569667Y1107893D01*
X569667D02*
X569052Y1108341D01*
X568129Y1108564*
X568129D02*
X567821D01*
X567821D02*
X566899Y1108341D01*
X566284Y1107893*
X566284D02*
X565976Y1107222D01*
X565976D02*
Y1106999D01*
X566284Y1106328*
X566899Y1105880*
X566899D02*
X567821Y1105656D01*
X565668Y1110578D02*
X569975D01*
X566899D02*
X565976Y1111249D01*
X565668Y1111696*
X565668D02*
Y1112367D01*
X565668D02*
X565976Y1112815D01*
X566899Y1113038*
X566899D02*
X569975D01*
X566899D02*
X565976Y1113709D01*
X565976D02*
X565668Y1114157D01*
X565668D02*
Y1114828D01*
X565668D02*
X565976Y1115275D01*
X565976D02*
X566899Y1115499D01*
X569975*
X565668Y1117512D02*
X569975D01*
X566899D02*
X565976Y1118183D01*
X565976D02*
X565668Y1118631D01*
X565668D02*
Y1119302D01*
X565668D02*
X565976Y1119749D01*
X565976D02*
X566899Y1119973D01*
X569975*
X566899D02*
X565976Y1120644D01*
X565668Y1121091*
X565668D02*
Y1121762D01*
X565668D02*
X565976Y1122210D01*
X566899Y1122433*
X566899D02*
X569975D01*
X573515Y1029824D02*
X578129D01*
X578129D02*
X579052Y1030048D01*
X579667Y1030495*
X579667D02*
X579975Y1031166D01*
X579975D02*
Y1031614D01*
X579667Y1032285*
X579052Y1032732*
X579052D02*
X578129Y1032956D01*
X578129D02*
X573515D01*
X575668Y1034969D02*
X579975D01*
X576899D02*
X575976Y1035640D01*
X575976D02*
X575668Y1036088D01*
X575668D02*
Y1036759D01*
X575668D02*
X575976Y1037206D01*
X575976D02*
X576899Y1037430D01*
X579975*
X573515Y1039443D02*
X573823Y1039667D01*
X573515Y1039891*
X573515D02*
X573208Y1039667D01*
X573515Y1039443*
X575668Y1039667D02*
X579975D01*
X573515Y1042575D02*
X578744D01*
X578744D02*
X579667Y1042799D01*
X579975Y1043246*
Y1043693*
X575668Y1041904D02*
Y1043470D01*
X577514Y1045707D02*
Y1048391D01*
X576899*
X576284Y1048167*
X576284D02*
X575976Y1047943D01*
X575976D02*
X575668Y1047496D01*
X575668D02*
Y1046825D01*
X575668D02*
X575976Y1046378D01*
X576591Y1045930*
X576591D02*
X577514Y1045707D01*
X578129*
X578129D02*
X579052Y1045930D01*
X579052D02*
X579667Y1046378D01*
X579975Y1046825*
X579975D02*
Y1047496D01*
X579975D02*
X579667Y1047943D01*
X579667D02*
X579052Y1048391D01*
X575053Y1046154D02*
X574131Y1047943D01*
X576591Y1052641D02*
X575976Y1052417D01*
X575976D02*
X575668Y1051746D01*
X575668D02*
Y1051075D01*
X575668D02*
X575976Y1050404D01*
X575976D02*
X576591Y1050180D01*
X576591D02*
X577206Y1050404D01*
X577206D02*
X577514Y1050852D01*
X577821Y1051970*
X577821D02*
X578129Y1052417D01*
X578129D02*
X578744Y1052641D01*
X578744D02*
X579052D01*
X579052D02*
X579667Y1052417D01*
X579667D02*
X579975Y1051746D01*
X579975D02*
Y1051075D01*
X579975D02*
X579667Y1050404D01*
X579667D02*
X579052Y1050180D01*
X577514Y1058681D02*
Y1061365D01*
X577514D02*
X576899D01*
X576899D02*
X576284Y1061141D01*
X576284D02*
X575976Y1060918D01*
X575668Y1060470*
X575668D02*
Y1059799D01*
X575668D02*
X575976Y1059352D01*
X576591Y1058904*
X576591D02*
X577514Y1058681D01*
X578129*
X578129D02*
X579052Y1058904D01*
X579052D02*
X579667Y1059352D01*
X579975Y1059799*
X579975D02*
Y1060470D01*
X579975D02*
X579667Y1060918D01*
X579052Y1061365*
X575668Y1063378D02*
X579975D01*
X576899D02*
X575976Y1064049D01*
X575976D02*
X575668Y1064497D01*
X575668D02*
Y1065168D01*
X575668D02*
X575976Y1065615D01*
X575976D02*
X576899Y1065839D01*
X579975*
X575668Y1071879D02*
X579975D01*
X576899D02*
X575976Y1072550D01*
X575668Y1072997*
X575668D02*
Y1073668D01*
X575668D02*
X575976Y1074116D01*
X576899Y1074339*
X576899D02*
X579975D01*
X576899D02*
X575976Y1075010D01*
X575976D02*
X575668Y1075458D01*
X575668D02*
Y1076129D01*
X575668D02*
X575976Y1076576D01*
X575976D02*
X576899Y1076800D01*
X579975*
X575668Y1078813D02*
X579975D01*
X576899D02*
X575976Y1079484D01*
X575976D02*
X575668Y1079932D01*
X575668D02*
Y1080603D01*
X575668D02*
X575976Y1081050D01*
X575976D02*
X576899Y1081274D01*
X579975*
X576899D02*
X575976Y1081945D01*
X575668Y1082392*
X575668D02*
Y1083063D01*
X575668D02*
X575976Y1083511D01*
X576899Y1083734*
X576899D02*
X579975D01*
X585053Y1033180D02*
X584438Y1032956D01*
X584438D02*
X583823Y1032509D01*
X583515Y1032061*
X583515D02*
Y1031166D01*
X583515D02*
X583823Y1030719D01*
X583823D02*
X584438Y1030272D01*
X584438D02*
X585053Y1030048D01*
X585053D02*
X585976Y1029824D01*
X585976D02*
X587514D01*
X587514D02*
X588437Y1030048D01*
X589052Y1030272*
X589667Y1030719*
X589667D02*
X589975Y1031166D01*
X589975D02*
Y1032061D01*
X589975D02*
X589667Y1032509D01*
X589052Y1032956*
X589052D02*
X588437Y1033180D01*
X583515Y1035193D02*
X589975D01*
X585668Y1039891D02*
X589975D01*
X586591D02*
X585976Y1039443D01*
X585976D02*
X585668Y1038996D01*
X585668D02*
Y1038325D01*
X585668D02*
X585976Y1037877D01*
X585976D02*
X586591Y1037430D01*
X586591D02*
X587514Y1037206D01*
X587514D02*
X588129D01*
X588129D02*
X589052Y1037430D01*
X589667Y1037877*
X589667D02*
X589975Y1038325D01*
Y1038996*
X589667Y1039443*
X589667D02*
X589052Y1039891D01*
X586591Y1044364D02*
X585976Y1044141D01*
X585668Y1043470*
X585668D02*
Y1042799D01*
X585668D02*
X585976Y1042127D01*
X585976D02*
X586591Y1041904D01*
X586591D02*
X587206Y1042127D01*
X587206D02*
X587514Y1042575D01*
X587821Y1043693*
X587821D02*
X588129Y1044141D01*
X588129D02*
X588744Y1044364D01*
X588744D02*
X589052D01*
X589052D02*
X589667Y1044141D01*
X589975Y1043470*
Y1042799*
X589667Y1042127*
X589667D02*
X589052Y1041904D01*
X586591Y1048838D02*
X585976Y1048615D01*
X585668Y1047943*
X585668D02*
Y1047272D01*
X585668D02*
X585976Y1046601D01*
X585976D02*
X586591Y1046378D01*
X586591D02*
X587206Y1046601D01*
X587206D02*
X587514Y1047049D01*
X587821Y1048167*
X587821D02*
X588129Y1048615D01*
X588129D02*
X588744Y1048838D01*
X588744D02*
X589052D01*
X589052D02*
X589667Y1048615D01*
X589975Y1047943*
X589975D02*
Y1047272D01*
X589975D02*
X589667Y1046601D01*
X589667D02*
X589052Y1046378D01*
X587514Y1050852D02*
Y1053536D01*
X586899*
X586284Y1053312*
X586284D02*
X585976Y1053088D01*
X585976D02*
X585668Y1052641D01*
X585668D02*
Y1051970D01*
X585668D02*
X585976Y1051523D01*
X586591Y1051075*
X586591D02*
X587514Y1050852D01*
X588129*
X588129D02*
X589052Y1051075D01*
X589052D02*
X589667Y1051523D01*
X589975Y1051970*
Y1052641*
X589975D02*
X589667Y1053088D01*
X589667D02*
X589052Y1053536D01*
X583515Y1060023D02*
Y1062484D01*
X583515D02*
X585976Y1061141D01*
X585976D02*
Y1061812D01*
X585976D02*
X586284Y1062260D01*
X586591Y1062484*
X586591D02*
X587514Y1062707D01*
X587514D02*
X588129D01*
X588129D02*
X589052Y1062484D01*
X589667Y1062036*
X589667D02*
X589975Y1061365D01*
X589975D02*
Y1060694D01*
X589975D02*
X589667Y1060023D01*
X589359Y1059799*
X589359D02*
X588744Y1059576D01*
X593515Y1029824D02*
X599975D01*
X593515D02*
Y1032732D01*
X596591Y1029824D02*
Y1031614D01*
X595668Y1037430D02*
X599975D01*
X596591D02*
X595976Y1036982D01*
X595976D02*
X595668Y1036535D01*
X595668D02*
Y1035864D01*
X595668D02*
X595976Y1035417D01*
X596591Y1034969*
X596591D02*
X597514Y1034746D01*
X598129*
X598129D02*
X599052Y1034969D01*
X599052D02*
X599667Y1035417D01*
X599975Y1035864*
X599975D02*
Y1036535D01*
X599975D02*
X599667Y1036982D01*
X599667D02*
X599052Y1037430D01*
X596591Y1042127D02*
X595976Y1041680D01*
X595976D02*
X595668Y1041233D01*
X595668D02*
Y1040562D01*
X595668D02*
X595976Y1040114D01*
X595976D02*
X596591Y1039667D01*
X596591D02*
X597514Y1039443D01*
X597514D02*
X598129D01*
X598129D02*
X599052Y1039667D01*
X599667Y1040114*
X599667D02*
X599975Y1040562D01*
Y1041233*
X599667Y1041680*
X599667D02*
X599052Y1042127D01*
X597514Y1044141D02*
Y1046825D01*
X597514D02*
X596899D01*
X596899D02*
X596284Y1046601D01*
X596284D02*
X595976Y1046378D01*
X595668Y1045930*
X595668D02*
Y1045259D01*
X595668D02*
X595976Y1044812D01*
X596591Y1044364*
X596591D02*
X597514Y1044141D01*
X598129*
X598129D02*
X599052Y1044364D01*
X599052D02*
X599667Y1044812D01*
X599975Y1045259*
X599975D02*
Y1045930D01*
X599975D02*
X599667Y1046378D01*
X599052Y1046825*
X594746Y1052865D02*
X594438Y1053312D01*
X594438D02*
X593515Y1053983D01*
X593515D02*
X599975D01*
X596284Y1060023D02*
Y1064049D01*
X598129Y1060023D02*
Y1064049D01*
X596591Y1072773D02*
X595976Y1072326D01*
X595976D02*
X595668Y1071879D01*
X595668D02*
Y1071208D01*
X595668D02*
X595976Y1070760D01*
X595976D02*
X596591Y1070313D01*
X596591D02*
X597514Y1070089D01*
X597514D02*
X598129D01*
X598129D02*
X599052Y1070313D01*
X599667Y1070760*
X599667D02*
X599975Y1071208D01*
Y1071879*
X599667Y1072326*
X599667D02*
X599052Y1072773D01*
X595668Y1075905D02*
X595976Y1075458D01*
X596591Y1075010*
X596591D02*
X597514Y1074787D01*
X598129*
X598129D02*
X599052Y1075010D01*
X599052D02*
X599667Y1075458D01*
X599975Y1075905*
X599975D02*
Y1076576D01*
X599975D02*
X599667Y1077024D01*
X599052Y1077471*
X599052D02*
X598129Y1077695D01*
X598129D02*
X597514D01*
X596591Y1077471*
X596591D02*
X595976Y1077024D01*
X595668Y1076576*
X595668D02*
Y1075905D01*
X595053Y1075234D02*
X594131Y1076353D01*
X595053Y1077247*
X593515Y1079932D02*
X598744D01*
X598744D02*
X599667Y1080155D01*
X599667D02*
X599975Y1080603D01*
Y1081050*
X595668Y1079261D02*
Y1080826D01*
X597514Y1083063D02*
Y1085748D01*
X596899*
X596284Y1085524*
X596284D02*
X595976Y1085300D01*
X595976D02*
X595668Y1084853D01*
X595668D02*
Y1084182D01*
X595668D02*
X595976Y1083734D01*
X595976D02*
X596591Y1083287D01*
X596591D02*
X597514Y1083063D01*
X597514D02*
X598129D01*
X598129D02*
X599052Y1083287D01*
X599052D02*
X599667Y1083734D01*
X599667D02*
X599975Y1084182D01*
Y1084853*
X599667Y1085300*
X599667D02*
X599052Y1085748D01*
X595053Y1083511D02*
X594131Y1085300D01*
X596591Y1094248D02*
X595976Y1093801D01*
X595668Y1093353*
X595668D02*
Y1092682D01*
X595668D02*
X595976Y1092235D01*
X596591Y1091787*
X596591D02*
X597514Y1091564D01*
X598129*
X598129D02*
X599052Y1091787D01*
X599052D02*
X599667Y1092235D01*
X599975Y1092682*
X599975D02*
Y1093353D01*
X599975D02*
X599667Y1093801D01*
X599052Y1094248*
X595668Y1097380D02*
X595976Y1096932D01*
X595976D02*
X596591Y1096485D01*
X596591D02*
X597514Y1096261D01*
X597514D02*
X598129D01*
X598129D02*
X599052Y1096485D01*
X599052D02*
X599667Y1096932D01*
X599667D02*
X599975Y1097380D01*
Y1098051*
X599667Y1098498*
X599667D02*
X599052Y1098946D01*
X598129Y1099169*
X598129D02*
X597514D01*
X597514D02*
X596591Y1098946D01*
X596591D02*
X595976Y1098498D01*
X595976D02*
X595668Y1098051D01*
X595668D02*
Y1097380D01*
Y1101183D02*
X599975D01*
X596899D02*
X595976Y1101854D01*
X595668Y1102301*
X595668D02*
Y1102972D01*
X595668D02*
X595976Y1103420D01*
X596899Y1103643*
X596899D02*
X599975D01*
X596899D02*
X595976Y1104314D01*
X595976D02*
X595668Y1104762D01*
X595668D02*
Y1105433D01*
X595668D02*
X595976Y1105880D01*
X595976D02*
X596899Y1106104D01*
X599975*
X595668Y1108117D02*
X602128D01*
X596591D02*
X595976Y1108564D01*
X595976D02*
X595668Y1109012D01*
X595668D02*
Y1109683D01*
X595668D02*
X595976Y1110130D01*
X595976D02*
X596591Y1110578D01*
X596591D02*
X597514Y1110801D01*
X597514D02*
X598129D01*
X598129D02*
X599052Y1110578D01*
X599667Y1110130*
X599667D02*
X599975Y1109683D01*
Y1109012*
X599667Y1108564*
X599667D02*
X599052Y1108117D01*
X595668Y1113933D02*
X595976Y1113486D01*
X596591Y1113038*
X596591D02*
X597514Y1112815D01*
X598129*
X598129D02*
X599052Y1113038D01*
X599052D02*
X599667Y1113486D01*
X599975Y1113933*
X599975D02*
Y1114604D01*
X599975D02*
X599667Y1115052D01*
X599052Y1115499*
X598129Y1115723*
X598129D02*
X597514D01*
X596591Y1115499*
X596591D02*
X595976Y1115052D01*
X595668Y1114604*
X595668D02*
Y1113933D01*
X596591Y1120197D02*
X595976Y1119973D01*
X595668Y1119302*
X595668D02*
Y1118631D01*
X595668D02*
X595976Y1117960D01*
X596591Y1117736*
X596591D02*
X597206Y1117960D01*
X597206D02*
X597514Y1118407D01*
X597821Y1119525*
X597821D02*
X598129Y1119973D01*
X598129D02*
X598744Y1120197D01*
X598744D02*
X599052D01*
X599667Y1119973*
X599975Y1119302*
Y1118631*
X599667Y1117960*
X599052Y1117736*
X595668Y1124894D02*
X599975D01*
X596591D02*
X595976Y1124447D01*
X595668Y1123999*
X595668D02*
Y1123328D01*
X595668D02*
X595976Y1122881D01*
X596591Y1122433*
X596591D02*
X597514Y1122210D01*
X598129*
X598129D02*
X599052Y1122433D01*
X599052D02*
X599667Y1122881D01*
X599975Y1123328*
X599975D02*
Y1123999D01*
X599975D02*
X599667Y1124447D01*
X599052Y1124894*
X595668Y1126907D02*
X599975D01*
X596899D02*
X595976Y1127578D01*
X595976D02*
X595668Y1128026D01*
X595668D02*
Y1128697D01*
X595668D02*
X595976Y1129144D01*
X595976D02*
X596899Y1129368D01*
X599975*
X593515Y1132052D02*
X598744D01*
X598744D02*
X599667Y1132276D01*
X599975Y1132723*
X599975D02*
Y1133171D01*
X595668Y1131381D02*
Y1132947D01*
X596591Y1137645D02*
X595976Y1137421D01*
X595668Y1136750*
X595668D02*
Y1136079D01*
X595668D02*
X595976Y1135408D01*
X596591Y1135184*
X596591D02*
X597206Y1135408D01*
X597206D02*
X597514Y1135855D01*
X597514D02*
X597821Y1136974D01*
X597821D02*
X598129Y1137421D01*
X598129D02*
X598744Y1137645D01*
X598744D02*
X599052D01*
X599667Y1137421*
X599975Y1136750*
Y1136079*
X599667Y1135408*
X599052Y1135184*
X603515Y1029824D02*
X609975Y1031614D01*
X603515Y1033403D02*
X609975Y1031614D01*
X607514Y1035417D02*
Y1038101D01*
X606899*
X606284Y1037877*
X606284D02*
X605976Y1037654D01*
X605668Y1037206*
X605668D02*
Y1036535D01*
X605668D02*
X605976Y1036088D01*
X606591Y1035640*
X606591D02*
X607514Y1035417D01*
X608129*
X608129D02*
X609052Y1035640D01*
X609052D02*
X609667Y1036088D01*
X609975Y1036535*
X609975D02*
Y1037206D01*
X609975D02*
X609667Y1037654D01*
X609052Y1038101*
X605668Y1040114D02*
X609975D01*
X607514D02*
X606591Y1040338D01*
X606591D02*
X605976Y1040785D01*
X605976D02*
X605668Y1041233D01*
X605668D02*
Y1041904D01*
Y1043917D02*
X609975D01*
X606899D02*
X605976Y1044588D01*
X605976D02*
X605668Y1045035D01*
X605668D02*
Y1045707D01*
X605668D02*
X605976Y1046154D01*
X606899Y1046378*
X609975*
X603515Y1048391D02*
X603823Y1048615D01*
X603515Y1048838*
X603515D02*
X603208Y1048615D01*
X603515Y1048391*
X605668Y1048615D02*
X609975D01*
X606591Y1053312D02*
X605976Y1053088D01*
X605976D02*
X605668Y1052417D01*
X605668D02*
Y1051746D01*
X605668D02*
X605976Y1051075D01*
X605976D02*
X606591Y1050852D01*
X606591D02*
X607206Y1051075D01*
X607206D02*
X607514Y1051523D01*
X607821Y1052641*
X607821D02*
X608129Y1053088D01*
X608129D02*
X608744Y1053312D01*
X608744D02*
X609052D01*
X609052D02*
X609667Y1053088D01*
X609667D02*
X609975Y1052417D01*
X609975D02*
Y1051746D01*
X609975D02*
X609667Y1051075D01*
X609667D02*
X609052Y1050852D01*
X607514Y1059352D02*
Y1062036D01*
X607514D02*
X606899D01*
X606899D02*
X606284Y1061812D01*
X606284D02*
X605976Y1061589D01*
X605668Y1061141*
X605668D02*
Y1060470D01*
X605668D02*
X605976Y1060023D01*
X606591Y1059576*
X606591D02*
X607514Y1059352D01*
X608129*
X608129D02*
X609052Y1059576D01*
X609667Y1060023*
X609975Y1060470*
X609975D02*
Y1061141D01*
X609975D02*
X609667Y1061589D01*
X609052Y1062036*
X605053Y1059799D02*
X604131Y1061589D01*
X605668Y1063826D02*
X612128D01*
X606591D02*
X605976Y1064273D01*
X605976D02*
X605668Y1064721D01*
X605668D02*
Y1065392D01*
X605668D02*
X605976Y1065839D01*
X606591Y1066286*
X606591D02*
X607514Y1066510D01*
X607514D02*
X608129D01*
X608129D02*
X609052Y1066286D01*
X609052D02*
X609667Y1065839D01*
X609975Y1065392*
Y1064721*
X609667Y1064273*
X609667D02*
X609052Y1063826D01*
X605668Y1071208D02*
X609975D01*
X606591D02*
X605976Y1070760D01*
X605976D02*
X605668Y1070313D01*
X605668D02*
Y1069642D01*
X605668D02*
X605976Y1069194D01*
X605976D02*
X606591Y1068747D01*
X606591D02*
X607514Y1068523D01*
X607514D02*
X608129D01*
X608129D02*
X609052Y1068747D01*
X609667Y1069194*
X609667D02*
X609975Y1069642D01*
Y1070313*
X609667Y1070760*
X609667D02*
X609052Y1071208D01*
X605668Y1073221D02*
X609975D01*
X607514D02*
X606591Y1073445D01*
X606591D02*
X605976Y1073892D01*
X605668Y1074339*
X605668D02*
Y1075010D01*
Y1079708D02*
X610590D01*
X611512Y1079484*
X611512D02*
X611820Y1079261D01*
X612128Y1078813*
X612128D02*
Y1078142D01*
X612128D02*
X611820Y1077695D01*
X606591Y1079708D02*
X605976Y1079261D01*
X605668Y1078813*
X605668D02*
Y1078142D01*
X605668D02*
X605976Y1077695D01*
X606591Y1077247*
X606591D02*
X607514Y1077024D01*
X608129*
X608129D02*
X609052Y1077247D01*
X609052D02*
X609667Y1077695D01*
X609975Y1078142*
X609975D02*
Y1078813D01*
X609975D02*
X609667Y1079261D01*
X609052Y1079708*
X605668Y1081721D02*
X609975D01*
X606899D02*
X605976Y1082392D01*
X605976D02*
X605668Y1082840D01*
X605668D02*
Y1083511D01*
X605668D02*
X605976Y1083958D01*
X605976D02*
X606899Y1084182D01*
X609975*
X607514Y1086195D02*
Y1088879D01*
X607514D02*
X606899D01*
X606899D02*
X606284Y1088656D01*
X605976Y1088432*
X605976D02*
X605668Y1087985D01*
X605668D02*
Y1087314D01*
X605668D02*
X605976Y1086866D01*
X605976D02*
X606591Y1086419D01*
X606591D02*
X607514Y1086195D01*
X607514D02*
X608129D01*
X608129D02*
X609052Y1086419D01*
X609667Y1086866*
X609667D02*
X609975Y1087314D01*
Y1087985*
X609667Y1088432*
X609667D02*
X609052Y1088879D01*
X606591Y1097380D02*
X605976Y1097156D01*
X605976D02*
X605668Y1096485D01*
X605668D02*
Y1095814D01*
X605668D02*
X605976Y1095143D01*
X606591Y1094919*
X606591D02*
X607206Y1095143D01*
X607206D02*
X607514Y1095590D01*
X607514D02*
X607821Y1096709D01*
X607821D02*
X608129Y1097156D01*
X608129D02*
X608744Y1097380D01*
X608744D02*
X609052D01*
X609667Y1097156*
X609667D02*
X609975Y1096485D01*
X609975D02*
Y1095814D01*
X609667Y1095143*
X609052Y1094919*
X605668Y1099393D02*
X608744D01*
X608744D02*
X609667Y1099617D01*
X609975Y1100064*
X609975D02*
Y1100735D01*
X609975D02*
X609667Y1101183D01*
X608744Y1101854*
X605668D02*
X609975D01*
X605668Y1103867D02*
X609975D01*
X607514D02*
X606591Y1104091D01*
X606591D02*
X605976Y1104538D01*
X605668Y1104985*
X605668D02*
Y1105656D01*
X603515Y1113486D02*
Y1113038D01*
X603515D02*
X603823Y1112591D01*
X604746Y1112367*
X604746D02*
X609975D01*
X605668Y1111696D02*
Y1113262D01*
Y1118183D02*
X609975D01*
X606591D02*
X605976Y1117736D01*
X605668Y1117289*
X605668D02*
Y1116617D01*
X605668D02*
X605976Y1116170D01*
X605976D02*
X606591Y1115723D01*
X606591D02*
X607514Y1115499D01*
X608129*
X608129D02*
X609052Y1115723D01*
X609667Y1116170*
X609667D02*
X609975Y1116617D01*
X609975D02*
Y1117289D01*
X609667Y1117736*
X609052Y1118183*
X606591Y1122881D02*
X605976Y1122433D01*
X605976D02*
X605668Y1121986D01*
X605668D02*
Y1121315D01*
X605668D02*
X605976Y1120868D01*
X606591Y1120420*
X606591D02*
X607514Y1120197D01*
X608129*
X608129D02*
X609052Y1120420D01*
X609052D02*
X609667Y1120868D01*
X609975Y1121315*
Y1121986*
X609975D02*
X609667Y1122433D01*
X609667D02*
X609052Y1122881D01*
X607514Y1124894D02*
Y1127578D01*
X607514D02*
X606899D01*
X606899D02*
X606284Y1127355D01*
X605976Y1127131*
X605976D02*
X605668Y1126684D01*
X605668D02*
Y1126013D01*
X605668D02*
X605976Y1125565D01*
X605976D02*
X606591Y1125118D01*
X606591D02*
X607514Y1124894D01*
X607514D02*
X608129D01*
X608129D02*
X609052Y1125118D01*
X609667Y1125565*
X609667D02*
X609975Y1126013D01*
Y1126684*
X609667Y1127131*
X609667D02*
X609052Y1127578D01*
X604746Y1133618D02*
X604438Y1134066D01*
X604438D02*
X603515Y1134737D01*
X603515D02*
X609975D01*
X892206Y1100958D02*
X898665D01*
X892206D02*
Y1103866D01*
X895282Y1100958D02*
Y1102748D01*
X898665Y1100958D02*
Y1103866D01*
X892206Y1105879D02*
X898665D01*
X892206D02*
X898665Y1107669D01*
X892206Y1109458D02*
X898665Y1107669D01*
X892206Y1109458D02*
X898665D01*
X892206Y1111472D02*
X898665D01*
X892206D02*
Y1113485D01*
X892206D02*
X892514Y1114156D01*
X892821Y1114380*
X892821D02*
X893437Y1114603D01*
X893437D02*
X894052D01*
X894052D02*
X894667Y1114380D01*
X894975Y1114156*
X895282Y1113485*
Y1111472D02*
Y1113485D01*
X895282D02*
X895590Y1114156D01*
X895897Y1114380*
X895897D02*
X896512Y1114603D01*
X896512D02*
X897435D01*
X897435D02*
X898050Y1114380D01*
X898050D02*
X898358Y1114156D01*
X898665Y1113485*
X898665D02*
Y1111472D01*
X892206Y1118406D02*
X898665Y1116617D01*
X892206Y1118406D02*
X898665Y1120196D01*
X896512Y1117288D02*
Y1119525D01*
X893129Y1125341D02*
X892514Y1124893D01*
X892514D02*
X892206Y1124222D01*
X892206D02*
Y1123327D01*
X892206D02*
X892514Y1122656D01*
X892514D02*
X893129Y1122209D01*
X893129D02*
X893744D01*
X893744D02*
X894359Y1122433D01*
X894359D02*
X894667Y1122656D01*
X894667D02*
X894975Y1123104D01*
X895590Y1124446*
X895897Y1124893*
X895897D02*
X896205Y1125117D01*
X896820Y1125341*
X897743*
X898358Y1124893*
X898358D02*
X898665Y1124222D01*
X898665D02*
Y1123327D01*
X898665D02*
X898358Y1122656D01*
X898358D02*
X897743Y1122209D01*
X892206Y1127354D02*
X898665D01*
X892206D02*
Y1130262D01*
X895282Y1127354D02*
Y1129143D01*
X898665Y1127354D02*
Y1130262D01*
X892206Y1136302D02*
X898665D01*
X892206D02*
Y1138315D01*
X892206D02*
X892514Y1138986D01*
X892821Y1139210*
X892821D02*
X893437Y1139433D01*
X893437D02*
X894052D01*
X894052D02*
X894667Y1139210D01*
X894975Y1138986*
X895282Y1138315*
X895282D02*
Y1136302D01*
Y1137867D02*
X898665Y1139433D01*
X892206Y1141447D02*
X898665D01*
X892206D02*
Y1144355D01*
X895282Y1141447D02*
Y1143236D01*
X898665Y1141447D02*
Y1144355D01*
X893129Y1149500D02*
X892514Y1149052D01*
X892514D02*
X892206Y1148381D01*
X892206D02*
Y1147486D01*
X892206D02*
X892514Y1146815D01*
X892514D02*
X893129Y1146368D01*
X893129D02*
X893744D01*
X893744D02*
X894359Y1146591D01*
X894359D02*
X894667Y1146815D01*
X894667D02*
X894975Y1147263D01*
X895590Y1148605*
X895897Y1149052*
X895897D02*
X896205Y1149276D01*
X896820Y1149500*
X897743*
X898358Y1149052*
X898358D02*
X898665Y1148381D01*
X898665D02*
Y1147486D01*
X898665D02*
X898358Y1146815D01*
X898358D02*
X897743Y1146368D01*
X892206Y1151513D02*
X898665D01*
X893129Y1156658D02*
X892514Y1156210D01*
X892514D02*
X892206Y1155539D01*
X892206D02*
Y1154644D01*
X892206D02*
X892514Y1153973D01*
X892514D02*
X893129Y1153526D01*
X893129D02*
X893744D01*
X893744D02*
X894359Y1153750D01*
X894359D02*
X894667Y1153973D01*
X894667D02*
X894975Y1154421D01*
X895590Y1155763*
X895897Y1156210*
X895897D02*
X896205Y1156434D01*
X896205D02*
X896820Y1156658D01*
X897743*
X898358Y1156210*
X898358D02*
X898665Y1155539D01*
X898665D02*
Y1154644D01*
X898665D02*
X898358Y1153973D01*
X898358D02*
X897743Y1153526D01*
X892206Y1160237D02*
X898665D01*
X892206Y1158671D02*
Y1161803D01*
Y1163816D02*
X898665D01*
X892206Y1165829D02*
X898665Y1167619D01*
X892206Y1169408D02*
X898665Y1167619D01*
X892206Y1171421D02*
X898665D01*
X892206D02*
Y1174329D01*
X895282Y1171421D02*
Y1173211D01*
X898665Y1171421D02*
Y1174329D01*
X892206Y1180369D02*
X898665Y1183501D01*
X892206D02*
X898665Y1180369D01*
X892206Y1185514D02*
X898665D01*
X892206D02*
Y1187527D01*
X892206D02*
X892514Y1188198D01*
X892514D02*
X892821Y1188422D01*
X892821D02*
X893437Y1188646D01*
X894359*
X894359D02*
X894975Y1188422D01*
X894975D02*
X895282Y1188198D01*
X895282D02*
X895590Y1187527D01*
X895590D02*
Y1185514D01*
X893437Y1190659D02*
X893129Y1191107D01*
X893129D02*
X892206Y1191778D01*
X892206D02*
X898665D01*
X892206Y1194909D02*
X892514Y1194238D01*
X892514D02*
X893129Y1194015D01*
X893129D02*
X893744D01*
X893744D02*
X894359Y1194238D01*
X894359D02*
X894667Y1194686D01*
X894975Y1195580*
X894975D02*
X895282Y1196251D01*
X895282D02*
X895897Y1196699D01*
X895897D02*
X896512Y1196923D01*
X896512D02*
X897435D01*
X897435D02*
X898050Y1196699D01*
X898050D02*
X898358Y1196475D01*
X898358D02*
X898665Y1195804D01*
X898665D02*
Y1194909D01*
X898665D02*
X898358Y1194238D01*
X898358D02*
X898050Y1194015D01*
X898050D02*
X897435Y1193791D01*
X897435D02*
X896512D01*
X896512D02*
X895897Y1194015D01*
X895897D02*
X895282Y1194462D01*
X895282D02*
X894975Y1195133D01*
X894975D02*
X894667Y1196028D01*
X894359Y1196475*
X894359D02*
X893744Y1196699D01*
X893744D02*
X893129D01*
X893129D02*
X892514Y1196475D01*
X892514D02*
X892206Y1195804D01*
X892206D02*
Y1194909D01*
Y1200278D02*
X892514Y1199607D01*
X893437Y1199159*
X893437D02*
X894975Y1198936D01*
X895897*
X895897D02*
X897435Y1199159D01*
X897435D02*
X898358Y1199607D01*
X898665Y1200278*
X898665D02*
Y1200725D01*
X898665D02*
X898358Y1201396D01*
X898358D02*
X897435Y1201844D01*
X897435D02*
X895897Y1202068D01*
X895897D02*
X894975D01*
X893437Y1201844*
X892514Y1201396*
X892514D02*
X892206Y1200725D01*
X892206D02*
Y1200278D01*
Y1206989D02*
Y1204752D01*
X892206D02*
X894975Y1204528D01*
X894975D02*
X894667Y1204752D01*
X894359Y1205423*
X894359D02*
Y1206094D01*
X894359D02*
X894667Y1206765D01*
X894667D02*
X895282Y1207212D01*
X895282D02*
X896205Y1207436D01*
X896205D02*
X896820Y1207212D01*
X896820D02*
X897743Y1206989D01*
X898358Y1206541*
X898358D02*
X898665Y1205870D01*
X898665D02*
Y1205199D01*
X898665D02*
X898358Y1204528D01*
X898358D02*
X898050Y1204304D01*
X898050D02*
X897435Y1204081D01*
X890976Y1213476D02*
X900818Y1209449D01*
X892206Y1215489D02*
X898665D01*
X892206D02*
Y1217055D01*
X892206D02*
X892514Y1217726D01*
X892514D02*
X893129Y1218173D01*
X893129D02*
X893744Y1218397D01*
X893744D02*
X894667Y1218621D01*
X896205*
X897128Y1218397*
X897128D02*
X897743Y1218173D01*
X897743D02*
X898358Y1217726D01*
X898358D02*
X898665Y1217055D01*
X898665D02*
Y1215489D01*
X893437Y1220634D02*
X893129Y1221081D01*
X893129D02*
X892206Y1221753D01*
X892206D02*
X898665D01*
X892206Y1227792D02*
X898665D01*
X892206D02*
Y1229806D01*
X892206D02*
X892514Y1230477D01*
X892821Y1230700*
X892821D02*
X893437Y1230924D01*
X894359*
X894359D02*
X894975Y1230700D01*
X894975D02*
X895282Y1230477D01*
X895282D02*
X895590Y1229806D01*
Y1227792*
X892206Y1232937D02*
X898665D01*
X892206Y1236069D02*
X898665D01*
X895282Y1232937D02*
Y1236069D01*
X892206Y1239424D02*
X892514Y1238977D01*
X893129Y1238530*
X893129D02*
X893744Y1238306D01*
X893744D02*
X894667Y1238082D01*
X894667D02*
X896205D01*
X896205D02*
X897128Y1238306D01*
X897743Y1238530*
X898358Y1238977*
X898665Y1239424*
X898665D02*
Y1240319D01*
X898665D02*
X898358Y1240767D01*
X897743Y1241214*
X897128Y1241438*
X896205Y1241661*
X896205D02*
X894667D01*
X894667D02*
X893744Y1241438D01*
X893744D02*
X893129Y1241214D01*
X893129D02*
X892514Y1240767D01*
X892206Y1240319*
X892206D02*
Y1239424D01*
Y1245240D02*
X898665D01*
X892206Y1243675D02*
Y1246806D01*
Y1250162D02*
X892514Y1249714D01*
X892514D02*
X893129Y1249267D01*
X893129D02*
X893744Y1249043D01*
X893744D02*
X894667Y1248819D01*
X894667D02*
X896205D01*
X896205D02*
X897128Y1249043D01*
X897128D02*
X897743Y1249267D01*
X898358Y1249714*
X898358D02*
X898665Y1250162D01*
X898665D02*
Y1251056D01*
X898665D02*
X898358Y1251504D01*
X897743Y1251951*
X897743D02*
X897128Y1252175D01*
X896205Y1252399*
X894667*
X893744Y1252175*
X893744D02*
X893129Y1251951D01*
X893129D02*
X892514Y1251504D01*
X892206Y1251056*
X892206D02*
Y1250162D01*
Y1254412D02*
X898665D01*
X892206D02*
X898665Y1257544D01*
X892206D02*
X898665D01*
X892206Y1259557D02*
X898665D01*
X893129Y1264702D02*
X892514Y1264254D01*
X892514D02*
X892206Y1263583D01*
X892206D02*
Y1262688D01*
X892206D02*
X892514Y1262017D01*
X892514D02*
X893129Y1261570D01*
X893129D02*
X893744D01*
X893744D02*
X894359Y1261794D01*
X894359D02*
X894667Y1262017D01*
X894667D02*
X894975Y1262465D01*
X895590Y1263807*
X895897Y1264254*
X895897D02*
X896205Y1264478D01*
X896205D02*
X896820Y1264702D01*
X897743*
X898358Y1264254*
X898358D02*
X898665Y1263583D01*
X898665D02*
Y1262688D01*
X898665D02*
X898358Y1262017D01*
X898358D02*
X897743Y1261570D01*
X894359Y1273426D02*
X898665D01*
X895282D02*
X894667Y1272978D01*
X894667D02*
X894359Y1272531D01*
X894359D02*
Y1271860D01*
X894359D02*
X894667Y1271413D01*
X895282Y1270965*
X895282D02*
X896205Y1270741D01*
X896205D02*
X896820D01*
X896820D02*
X897743Y1270965D01*
X897743D02*
X898358Y1271413D01*
X898665Y1271860*
X898665D02*
Y1272531D01*
X898665D02*
X898358Y1272978D01*
X898358D02*
X897743Y1273426D01*
X894359Y1275439D02*
X898665Y1276781D01*
X894359Y1278123D02*
X898665Y1276781D01*
X896205Y1280137D02*
Y1282821D01*
X895590*
X894975Y1282597*
X894975D02*
X894667Y1282374D01*
X894359Y1281926*
X894359D02*
Y1281255D01*
X894359D02*
X894667Y1280808D01*
X895282Y1280360*
X895282D02*
X896205Y1280137D01*
X896820*
X897743Y1280360*
X897743D02*
X898358Y1280808D01*
X898665Y1281255*
X898665D02*
Y1281926D01*
X898665D02*
X898358Y1282374D01*
X897743Y1282821*
X895282Y1287518D02*
X894667Y1287071D01*
X894667D02*
X894359Y1286624D01*
X894359D02*
Y1285953D01*
X894359D02*
X894667Y1285505D01*
X894667D02*
X895282Y1285058D01*
X895282D02*
X896205Y1284834D01*
X896205D02*
X896820D01*
X896820D02*
X897743Y1285058D01*
X898358Y1285505*
X898358D02*
X898665Y1285953D01*
X898665D02*
Y1286624D01*
X898665D02*
X898358Y1287071D01*
X898358D02*
X897743Y1287518D01*
X892206Y1293558D02*
X898665D01*
X892206D02*
Y1296466D01*
X895282Y1293558D02*
Y1295348D01*
X898050Y1298703D02*
X898358Y1298479D01*
X898358D02*
X898665Y1298703D01*
X898665D02*
X898358Y1298927D01*
X898050Y1298703*
X892206Y1300940D02*
X898665D01*
X898665D02*
Y1303624D01*
X898050Y1305861D02*
X898358Y1305638D01*
X898665Y1305861*
X898665D02*
X898358Y1306085D01*
X898358D02*
X898050Y1305861D01*
X363537Y741253D02*
X363291D01*
X363291D02*
X362799Y741432D01*
X362799D02*
X362553Y741611D01*
X362553D02*
X362307Y741969D01*
X362307D02*
Y742685D01*
X362307D02*
X362553Y743043D01*
X362553D02*
X362799Y743222D01*
X362799D02*
X363291Y743401D01*
X363291D02*
X363784D01*
X364276Y743222*
X365014Y742864*
X367475Y741074*
X367475D02*
Y743580D01*
G54D16*
X389975Y472324D03*
X424975Y462324D03*
X404975D03*
Y482324D03*
X424975D03*
X483725Y522324D03*
X518725Y512324D03*
X498725D03*
Y532324D03*
X518725D03*
G54D17*
X754975Y844824D03*
Y802324D03*
Y759824D03*
X739975Y869824D03*
Y734824D03*
X699975Y869824D03*
X659975D03*
X619975D03*
X579975D03*
X529975D03*
X494975D03*
Y734824D03*
X539975D03*
X699975D03*
X659975D03*
X619975D03*
X579975D03*
X454975Y494824D03*
X427475D03*
X439975D03*
X494975Y816074D03*
G54D26*
X759975Y457324D03*
X749975D03*
X739975D03*
X729975D03*
X719975D03*
X709975D03*
X699975D03*
X689975D03*
X679975D03*
X669975D03*
X659975D03*
X649975D03*
X639975D03*
X629975D03*
X719975Y497324D03*
Y527324D03*
X669975D03*
X588725Y507324D03*
Y537324D03*
X669975Y497324D03*
X494975Y457324D03*
Y487324D03*
G54D27*
X359975Y737324D02*
Y747324D01*
X359975D02*
X369975D01*
X369975D02*
Y737324D01*
X369975D02*
X359975D01*
X854640Y1084824D02*
X864975D01*
X854640Y1088045D02*
X864975D01*
X854640D02*
X864975Y1093056D01*
X854640D02*
X864975D01*
X856116Y1101288D02*
X855132Y1100572D01*
X855132D02*
X854640Y1099499D01*
Y1098067*
X855132Y1096993*
X855132D02*
X856116Y1096277D01*
X856116D02*
X857100D01*
X857100D02*
X858085Y1096635D01*
X858085D02*
X858577Y1096993D01*
X858577D02*
X859069Y1097709D01*
X859069D02*
X860053Y1099857D01*
X860053D02*
X860545Y1100572D01*
X860545D02*
X861037Y1100930D01*
X861037D02*
X862022Y1101288D01*
X862022D02*
X863498D01*
X863498D02*
X864482Y1100572D01*
X864482D02*
X864975Y1099499D01*
Y1098067*
X864482Y1096993*
X864482D02*
X863498Y1096277D01*
X854640Y1107015D02*
X864975D01*
X854640Y1104509D02*
Y1109520D01*
Y1112741D02*
X864975D01*
X854640Y1118468D02*
X864975D01*
X854640Y1115962D02*
Y1120973D01*
Y1124194D02*
X862022D01*
X862022D02*
X863498Y1124552D01*
X863498D02*
X864482Y1125268D01*
X864482D02*
X864975Y1126342D01*
Y1127058*
X864482Y1128131*
X864482D02*
X863498Y1128847D01*
X863498D02*
X862022Y1129205D01*
X862022D02*
X854640D01*
Y1134932D02*
X864975D01*
X854640Y1132426D02*
Y1137437D01*
Y1147101D02*
X864975D01*
X854640D02*
Y1149606D01*
X855132Y1150680*
X856116Y1151396*
X856116D02*
X857100Y1151753D01*
X857100D02*
X858577Y1152111D01*
X858577D02*
X861037D01*
X861037D02*
X862514Y1151753D01*
X862514D02*
X863498Y1151396D01*
X863498D02*
X864482Y1150680D01*
X864482D02*
X864975Y1149606D01*
Y1147101*
X854640Y1155333D02*
X864975D01*
X854640D02*
Y1159985D01*
X859561Y1155333D02*
Y1158196D01*
X864975Y1155333D02*
Y1159985D01*
X854640Y1169649D02*
X864975D01*
X854640D02*
Y1172870D01*
X854640D02*
X855132Y1173944D01*
X855624Y1174302*
X855624D02*
X856608Y1174660D01*
X856608D02*
X858085D01*
X859069Y1174302*
X859561Y1173944*
X859561D02*
X860053Y1172870D01*
X860053D02*
Y1169649D01*
X854640Y1177881D02*
X864975D01*
X854640Y1182892D02*
X864975D01*
X859561Y1177881D02*
Y1182892D01*
X854640Y1186113D02*
X859561Y1188976D01*
X859561D02*
X864975D01*
X854640Y1191839D02*
X859561Y1188976D01*
X856116Y1200071D02*
X855132Y1199355D01*
X855132D02*
X854640Y1198282D01*
Y1196850*
X854640D02*
X855132Y1195776D01*
X855132D02*
X856116Y1195061D01*
X856116D02*
X857100D01*
X857100D02*
X858085Y1195418D01*
X858085D02*
X858577Y1195776D01*
X858577D02*
X859069Y1196492D01*
X859069D02*
X860053Y1198640D01*
X860053D02*
X860545Y1199355D01*
X860545D02*
X861037Y1199713D01*
X861037D02*
X862022Y1200071D01*
X862022D02*
X863498D01*
X863498D02*
X864482Y1199355D01*
X864482D02*
X864975Y1198282D01*
Y1196850*
X864975D02*
X864482Y1195776D01*
X864482D02*
X863498Y1195061D01*
X854640Y1203292D02*
X864975D01*
X854640Y1208661D02*
X855132Y1207945D01*
X855132D02*
X856116Y1207229D01*
X856116D02*
X857100Y1206872D01*
X857100D02*
X858577Y1206514D01*
X861037*
X861037D02*
X862514Y1206872D01*
X863498Y1207229*
X863498D02*
X864482Y1207945D01*
X864482D02*
X864975Y1208661D01*
X864975D02*
Y1210093D01*
X864482Y1210809*
X864482D02*
X863498Y1211524D01*
X863498D02*
X862514Y1211882D01*
X862514D02*
X861037Y1212240D01*
X861037D02*
X858577D01*
X858577D02*
X857100Y1211882D01*
X857100D02*
X856116Y1211524D01*
X856116D02*
X855132Y1210809D01*
X854640Y1210093*
Y1208661*
X863006Y1209735D02*
X865959Y1211882D01*
X854640Y1215461D02*
X862022D01*
X862022D02*
X863498Y1215819D01*
X863498D02*
X864482Y1216535D01*
X864482D02*
X864975Y1217609D01*
Y1218325*
X864482Y1219398*
X864482D02*
X863498Y1220114D01*
X863498D02*
X862022Y1220472D01*
X862022D02*
X854640D01*
Y1223693D02*
X864975D01*
X854640D02*
Y1228346D01*
X859561Y1223693D02*
Y1226557D01*
X864975Y1223693D02*
Y1228346D01*
X854640Y1238010D02*
X864975D01*
X854640D02*
X864975Y1243020D01*
X854640D02*
X864975D01*
X854640Y1246242D02*
X862022D01*
X863498Y1246600*
X863498D02*
X864482Y1247315D01*
X864482D02*
X864975Y1248389D01*
X864975D02*
Y1249105D01*
X864482Y1250179*
X864482D02*
X863498Y1250894D01*
X863498D02*
X862022Y1251252D01*
X862022D02*
X854640D01*
X857100Y1259842D02*
X856116Y1259484D01*
X856116D02*
X855132Y1258768D01*
X855132D02*
X854640Y1258053D01*
Y1256621*
X854640D02*
X855132Y1255905D01*
X855132D02*
X856116Y1255189D01*
X856116D02*
X857100Y1254831D01*
X857100D02*
X858577Y1254474D01*
X861037*
X861037D02*
X862514Y1254831D01*
X862514D02*
X863498Y1255189D01*
X863498D02*
X864482Y1255905D01*
X864482D02*
X864975Y1256621D01*
X864975D02*
Y1258053D01*
X864482Y1258768*
X864482D02*
X863498Y1259484D01*
X863498D02*
X862514Y1259842D01*
X854640Y1263063D02*
X864975D01*
X864975D02*
Y1267358D01*
X854640Y1270579D02*
X864975D01*
X854640D02*
Y1275232D01*
X859561Y1270579D02*
Y1273443D01*
X864975Y1270579D02*
Y1275232D01*
X854640Y1281317D02*
X864975Y1278454D01*
X854640Y1281317D02*
X864975Y1284180D01*
X861530Y1279527D02*
Y1283106D01*
X854640Y1287401D02*
X864975D01*
X854640Y1290622D02*
X864975D01*
X854640D02*
Y1293844D01*
X855132Y1294917*
X855132D02*
X855624Y1295275D01*
X855624D02*
X856608Y1295633D01*
X856608D02*
X857593D01*
X857593D02*
X858577Y1295275D01*
X858577D02*
X859069Y1294917D01*
X859069D02*
X859561Y1293844D01*
X859561D02*
Y1290622D01*
Y1293128D02*
X864975Y1295633D01*
X854640Y1298854D02*
X864975D01*
X854640D02*
Y1303507D01*
X859561Y1298854D02*
Y1301718D01*
X864975Y1298854D02*
Y1303507D01*
G54D33*
X329975Y797324D02*
Y477324D01*
X329975D02*
X429975Y377324D01*
X429975D02*
X749975D01*
X749975D02*
X819975Y447324D01*
X819975D02*
Y827324D01*
X819975D02*
X749975Y897324D01*
X749975D02*
X429975D01*
X429975D02*
X329975Y797324D01*
X359975Y737324D02*
Y747324D01*
X359975D02*
X369975D01*
X369975D02*
Y737324D01*
X369975D02*
X359975D01*
X782475Y788574D02*
X582475D01*
X582475D02*
X524975Y846074D01*
X524975D02*
X513725D01*
X772475Y774824D02*
X581225D01*
X581225D02*
X524975Y831074D01*
X524975D02*
X513725D01*
X744975Y647324D02*
Y507324D01*
X744975D02*
X719975Y482324D01*
X719975D02*
Y457324D01*
G54D34*
X729975Y687324D02*
Y587324D01*
X729975D02*
X704975Y562324D01*
X704975D02*
Y551074D01*
X729975Y687324D02*
X719975Y697324D01*
X719975D02*
X692475D01*
X692475D02*
X677475Y712324D01*
X677475D02*
Y744824D01*
X677475D02*
X664975Y757324D01*
X664975D02*
X578725D01*
X578725D02*
X536225Y799824D01*
X536225D02*
X473725D01*
X473725D02*
X449975Y823574D01*
X449975D02*
Y851074D01*
X538725D02*
X531225Y858574D01*
X531225D02*
X482475D01*
X457475D02*
X449975Y851074D01*
G54D35*
X684975Y486074D02*
Y497324D01*
X684975D02*
X669975Y512324D01*
X669975D02*
X654975D01*
X654975D02*
X629975Y487324D01*
X629975D02*
X519975D01*
X519975D02*
X507475Y499824D01*
X507475D02*
X484975D01*
X484975D02*
X472475Y512324D01*
X472475D02*
X424975D01*
X424975D02*
X412475Y524824D01*
X412475D02*
Y561074D01*
X521225Y771074D02*
X474975D01*
X474975D02*
X461225D01*
X454975Y673574D02*
X444975Y663574D01*
X444975D02*
Y602324D01*
X444975D02*
X439975Y597324D01*
X439975D02*
Y539824D01*
X654975Y428574D02*
X409975D01*
X409975D02*
X371225Y467324D01*
X371225D02*
Y506074D01*
X371225D02*
X359975Y517324D01*
X359975D02*
Y562324D01*
X359975D02*
X363725Y566074D01*
X363725D02*
Y597324D01*
X363725D02*
X359975Y601074D01*
G54D36*
X476225Y834824D03*
X463725D03*
X694975Y418574D03*
X706225D03*
X792475Y684824D03*
X782475Y788574D03*
X772475Y774824D03*
X764975Y562324D03*
Y642324D03*
X754975Y759824D03*
X744975Y647324D03*
X739975Y734824D03*
X719975Y537324D03*
X704975Y551074D03*
X699975Y734824D03*
X684975Y486074D03*
X659975Y487324D03*
Y734824D03*
X619975D03*
X501225Y547324D03*
X482475Y858574D03*
X454975Y673574D03*
X461225Y771074D03*
X457475Y858574D03*
X679975Y427324D03*
X654975Y428574D03*
X439975Y539824D03*
X359975Y601074D03*
X412475Y561074D03*
X384975Y613574D03*
X367475Y556074D03*
X402475Y607324D03*
X412475D03*
X371225Y542324D03*
X354975Y574824D03*
X409975Y658574D03*
Y651074D03*
X379975Y638574D03*
X369975D03*
X418725Y636074D03*
G54D58*
X669200Y611582D03*
X657368Y588360D03*
X638939Y569931D03*
X564232Y558098D03*
X541010Y569931D03*
X522581Y588360D03*
X510749Y611582D03*
X506671Y637324D03*
X510749Y663066D03*
X522581Y686289D03*
X542475Y704824D03*
X669200Y663066D03*
G54D79*
X639975Y527324D03*
G54D80*
X564975Y462324D03*
X569975Y457324D03*
X564975Y452324D03*
G54D90*
X538725Y851074D03*
X513725Y846074D03*
Y831074D03*
Y816074D03*
X521225Y771074D03*
X733725Y761074D03*
Y848574D03*
X0Y0D02*
M02*
